<?xml version="1.0" encoding="UTF-8"?>
<svg version="1.1" xmlns="http://www.w3.org/2000/svg" width="512" height="512">
<path d="M0 0 C1.14984375 -0.00064453 2.2996875 -0.00128906 3.484375 -0.00195312 C4.68578125 0.01802734 5.8871875 0.03800781 7.125 0.05859375 C8.32640625 0.05150391 9.5278125 0.04441406 10.765625 0.03710938 C19.50445323 0.10078918 19.50445323 0.10078918 21.96728516 1.66967773 C23.58829729 4.22699359 23.51335924 6.13654306 23.5234375 9.15234375 C23.52730469 10.25707031 23.53117188 11.36179687 23.53515625 12.5 C23.51775391 14.23056641 23.51775391 14.23056641 23.5 15.99609375 C23.51160156 17.14980469 23.52320313 18.30351562 23.53515625 19.4921875 C23.53128906 20.59691406 23.52742187 21.70164062 23.5234375 22.83984375 C23.52005371 23.85240234 23.51666992 24.86496094 23.51318359 25.90820312 C23.125 28.49609375 23.125 28.49609375 21.91259766 30.34960938 C20.125 31.49609375 20.125 31.49609375 15.125 31.49609375 C15.125 47.66609375 15.125 63.83609375 15.125 80.49609375 C36.905 80.49609375 58.685 80.49609375 81.125 80.49609375 C81.125 64.32609375 81.125 48.15609375 81.125 31.49609375 C79.475 31.49609375 77.825 31.49609375 76.125 31.49609375 C73.8266561 29.36945076 73.19728818 27.98206129 72.73681641 24.88647461 C72.73174072 23.43833374 72.73174072 23.43833374 72.7265625 21.9609375 C72.72269531 20.90455078 72.71882812 19.84816406 72.71484375 18.75976562 C72.73224609 17.11331055 72.73224609 17.11331055 72.75 15.43359375 C72.73839844 14.33208984 72.72679687 13.23058594 72.71484375 12.09570312 C72.71871094 11.04060547 72.72257813 9.98550781 72.7265625 8.8984375 C72.72994629 7.93413818 72.73333008 6.96983887 72.73681641 5.97631836 C73.125 3.49609375 73.125 3.49609375 74.28271484 1.68554688 C78.45240754 -1.00657383 84.3311517 0.03030387 89.125 0.05859375 C90.92710937 0.02862305 90.92710937 0.02862305 92.765625 -0.00195312 C93.91546875 -0.00130859 95.0653125 -0.00066406 96.25 0 C97.30445313 -0.00185303 98.35890625 -0.00370605 99.4453125 -0.00561523 C102.125 0.49609375 102.125 0.49609375 103.96728516 2.19702148 C105.33637252 4.91585229 105.51223128 6.73992453 105.5234375 9.77734375 C105.52730469 10.78410156 105.53117187 11.79085938 105.53515625 12.828125 C105.51775391 14.39626953 105.51775391 14.39626953 105.5 15.99609375 C105.51160156 17.04152344 105.52320313 18.08695313 105.53515625 19.1640625 C105.53128906 20.17082031 105.52742188 21.17757813 105.5234375 22.21484375 C105.52005371 23.13201172 105.51666992 24.04917969 105.51318359 24.99414062 C105.04299425 28.02464403 104.36722268 29.40147436 102.125 31.49609375 C100.475 31.49609375 98.825 31.49609375 97.125 31.49609375 C97.125 47.66609375 97.125 63.83609375 97.125 80.49609375 C118.905 80.49609375 140.685 80.49609375 163.125 80.49609375 C163.125 64.32609375 163.125 48.15609375 163.125 31.49609375 C161.475 31.49609375 159.825 31.49609375 158.125 31.49609375 C156.33740234 30.34960938 156.33740234 30.34960938 155.125 28.49609375 C154.73681641 25.90820312 154.73681641 25.90820312 154.7265625 22.83984375 C154.72269531 21.73511719 154.71882813 20.63039063 154.71484375 19.4921875 C154.73224609 17.76162109 154.73224609 17.76162109 154.75 15.99609375 C154.73839844 14.84238281 154.72679687 13.68867188 154.71484375 12.5 C154.71871094 11.39527344 154.72257812 10.29054688 154.7265625 9.15234375 C154.72994629 8.13978516 154.73333008 7.12722656 154.73681641 6.08398438 C155.125 3.49609375 155.125 3.49609375 156.28271484 1.66967773 C160.46776285 -0.99630765 166.32948828 0.03029406 171.125 0.05859375 C172.92710937 0.02862305 172.92710937 0.02862305 174.765625 -0.00195312 C175.91546875 -0.00130859 177.0653125 -0.00066406 178.25 0 C179.30445313 -0.00185303 180.35890625 -0.00370605 181.4453125 -0.00561523 C184.125 0.49609375 184.125 0.49609375 185.96728516 2.19702148 C187.33637252 4.91585229 187.51223128 6.73992453 187.5234375 9.77734375 C187.52730469 10.78410156 187.53117187 11.79085938 187.53515625 12.828125 C187.51775391 14.39626953 187.51775391 14.39626953 187.5 15.99609375 C187.51160156 17.04152344 187.52320313 18.08695313 187.53515625 19.1640625 C187.53128906 20.17082031 187.52742188 21.17757813 187.5234375 22.21484375 C187.52005371 23.13201172 187.51666992 24.04917969 187.51318359 24.99414062 C187.04299425 28.02464403 186.36722268 29.40147436 184.125 31.49609375 C182.475 31.49609375 180.825 31.49609375 179.125 31.49609375 C179.125 47.66609375 179.125 63.83609375 179.125 80.49609375 C182.755 80.49609375 186.385 80.49609375 190.125 80.49609375 C194.37392853 82.01356823 196.81472873 83.60511056 199.125 87.49609375 C200.10543964 90.43741266 200.24121202 92.3211104 200.22265625 95.3828125 C200.21943359 96.32060547 200.21621094 97.25839844 200.21289062 98.22460938 C200.20451172 99.20107422 200.19613281 100.17753906 200.1875 101.18359375 C200.18298828 102.17166016 200.17847656 103.15972656 200.17382812 104.17773438 C200.16204303 106.61724849 200.14559011 109.05664064 200.125 111.49609375 C200.72449463 111.4803833 201.32398926 111.46467285 201.94165039 111.44848633 C204.69016877 111.38565245 207.43853542 111.3469514 210.1875 111.30859375 C211.13044922 111.28345703 212.07339844 111.25832031 213.04492188 111.23242188 C219.97899346 111.15994029 224.90186346 111.8827398 230.4375 116.37109375 C233.53669499 120.27378373 234.37788476 123.87444649 234.3203125 128.796875 C234.31386719 129.77333984 234.30742187 130.74980469 234.30078125 131.75585938 C234.28402344 132.76326172 234.26726562 133.77066406 234.25 134.80859375 C234.24097656 135.83533203 234.23195313 136.86207031 234.22265625 137.91992188 C234.19916201 140.44555274 234.16631131 142.97070185 234.125 145.49609375 C235.03209717 145.47252808 235.03209717 145.47252808 235.95751953 145.44848633 C238.72158296 145.38577495 241.48549621 145.34698964 244.25 145.30859375 C245.20132812 145.28345703 246.15265625 145.25832031 247.1328125 145.23242188 C252.57179044 145.17576585 256.44099192 145.3909648 261.125 148.49609375 C266.30701138 154.21417527 265.125 158.16194859 265.125 166.49609375 C281.295 166.49609375 297.465 166.49609375 314.125 166.49609375 C314.125 164.84609375 314.125 163.19609375 314.125 161.49609375 C316.21961939 159.25387107 317.59644972 158.5780995 320.62695312 158.10791016 C321.54412109 158.10452637 322.46128906 158.10114258 323.40625 158.09765625 C324.41300781 158.09378906 325.41976563 158.08992187 326.45703125 158.0859375 C328.02517578 158.10333984 328.02517578 158.10333984 329.625 158.12109375 C330.67042969 158.10949219 331.71585937 158.09789062 332.79296875 158.0859375 C333.79972656 158.08980469 334.80648438 158.09367188 335.84375 158.09765625 C336.76091797 158.10104004 337.67808594 158.10442383 338.62304688 158.10791016 C341.6848055 158.58294882 343.01948786 159.21560076 345.125 161.49609375 C345.62670898 164.17578125 345.62670898 164.17578125 345.62109375 167.37109375 C345.62173828 168.5209375 345.62238281 169.67078125 345.62304688 170.85546875 C345.60306641 172.056875 345.58308594 173.25828125 345.5625 174.49609375 C345.56958984 175.6975 345.57667969 176.89890625 345.58398438 178.13671875 C345.52030457 186.87554698 345.52030457 186.87554698 343.95141602 189.33837891 C341.39410016 190.95939104 339.48455069 190.88445299 336.46875 190.89453125 C335.36402344 190.89839844 334.25929688 190.90226563 333.12109375 190.90625 C331.96738281 190.89464844 330.81367188 190.88304687 329.625 190.87109375 C328.47128906 190.88269531 327.31757813 190.89429688 326.12890625 190.90625 C325.02417969 190.90238281 323.91945313 190.89851562 322.78125 190.89453125 C321.76869141 190.89114746 320.75613281 190.88776367 319.71289062 190.88427734 C317.125 190.49609375 317.125 190.49609375 315.27148438 189.28369141 C314.125 187.49609375 314.125 187.49609375 314.125 182.49609375 C297.955 182.49609375 281.785 182.49609375 265.125 182.49609375 C265.125 204.27609375 265.125 226.05609375 265.125 248.49609375 C281.295 248.49609375 297.465 248.49609375 314.125 248.49609375 C314.125 246.84609375 314.125 245.19609375 314.125 243.49609375 C316.21961939 241.25387107 317.59644972 240.5780995 320.62695312 240.10791016 C321.54412109 240.10452637 322.46128906 240.10114258 323.40625 240.09765625 C324.41300781 240.09378906 325.41976563 240.08992187 326.45703125 240.0859375 C328.02517578 240.10333984 328.02517578 240.10333984 329.625 240.12109375 C330.67042969 240.10949219 331.71585937 240.09789062 332.79296875 240.0859375 C333.79972656 240.08980469 334.80648438 240.09367188 335.84375 240.09765625 C336.76091797 240.10104004 337.67808594 240.10442383 338.62304688 240.10791016 C341.68495514 240.58297204 343.01803915 241.21697583 345.125 243.49609375 C345.64257812 246.17578125 345.64257812 246.17578125 345.65625 249.37109375 C345.66140625 250.5209375 345.6665625 251.67078125 345.671875 252.85546875 C345.65640625 254.056875 345.6409375 255.25828125 345.625 256.49609375 C345.64046875 257.6975 345.6559375 258.89890625 345.671875 260.13671875 C345.66414062 261.86148438 345.66414062 261.86148438 345.65625 263.62109375 C345.65173828 264.67554688 345.64722656 265.73 345.64257812 266.81640625 C345.125 269.49609375 345.125 269.49609375 343.421875 271.33837891 C340.70415028 272.70821847 338.88052506 272.88332741 335.84375 272.89453125 C334.83699219 272.89839844 333.83023437 272.90226562 332.79296875 272.90625 C331.22482422 272.88884766 331.22482422 272.88884766 329.625 272.87109375 C328.57957031 272.88269531 327.53414063 272.89429688 326.45703125 272.90625 C325.45027344 272.90238281 324.44351562 272.89851563 323.40625 272.89453125 C322.03049805 272.88945557 322.03049805 272.88945557 320.62695312 272.88427734 C317.59644972 272.414088 316.21961939 271.73831643 314.125 269.49609375 C314.125 267.84609375 314.125 266.19609375 314.125 264.49609375 C297.955 264.49609375 281.785 264.49609375 265.125 264.49609375 C265.125 286.27609375 265.125 308.05609375 265.125 330.49609375 C281.295 330.49609375 297.465 330.49609375 314.125 330.49609375 C314.125 328.84609375 314.125 327.19609375 314.125 325.49609375 C315.27148438 323.70849609 315.27148438 323.70849609 317.125 322.49609375 C319.71289063 322.10791016 319.71289063 322.10791016 322.78125 322.09765625 C323.88597656 322.09378906 324.99070312 322.08992188 326.12890625 322.0859375 C327.28261719 322.09753906 328.43632812 322.10914063 329.625 322.12109375 C331.35556641 322.10369141 331.35556641 322.10369141 333.12109375 322.0859375 C334.77818359 322.09173828 334.77818359 322.09173828 336.46875 322.09765625 C337.48130859 322.10104004 338.49386719 322.10442383 339.53710938 322.10791016 C342.125 322.49609375 342.125 322.49609375 343.95141602 323.65380859 C346.6174014 327.8388566 345.59079969 333.70058203 345.5625 338.49609375 C345.58248047 339.6975 345.60246094 340.89890625 345.62304688 342.13671875 C345.62240234 343.2865625 345.62175781 344.43640625 345.62109375 345.62109375 C345.62294678 346.67554688 345.6247998 347.73 345.62670898 348.81640625 C345.125 351.49609375 345.125 351.49609375 343.40820312 353.33837891 C340.76826936 354.67697663 339.04854827 354.8830396 336.09765625 354.89453125 C335.14052734 354.89839844 334.18339844 354.90226562 333.19726562 354.90625 C332.20404297 354.89464844 331.21082031 354.88304687 330.1875 354.87109375 C329.19814453 354.88269531 328.20878906 354.89429688 327.18945312 354.90625 C317.53299615 354.86728649 317.53299615 354.86728649 314.125 351.49609375 C314.125 349.84609375 314.125 348.19609375 314.125 346.49609375 C297.955 346.49609375 281.785 346.49609375 265.125 346.49609375 C265.125 350.12609375 265.125 353.75609375 265.125 357.49609375 C263.60752552 361.74502228 262.01598319 364.18582248 258.125 366.49609375 C255.18368109 367.47653339 253.29998335 367.61230577 250.23828125 367.59375 C249.30048828 367.59052734 248.36269531 367.58730469 247.39648438 367.58398438 C246.42001953 367.57560547 245.44355469 367.56722656 244.4375 367.55859375 C243.44943359 367.55408203 242.46136719 367.54957031 241.44335938 367.54492188 C239.00384526 367.53313678 236.56445311 367.51668386 234.125 367.49609375 C234.14071045 368.09558838 234.1564209 368.69508301 234.17260742 369.31274414 C234.2354413 372.06126252 234.27414235 374.80962917 234.3125 377.55859375 C234.33763672 378.50154297 234.36277344 379.44449219 234.38867188 380.41601562 C234.46118317 387.35292959 233.69895595 392.21208098 229.3125 397.80859375 C223.57270751 402.23643367 217.14550401 401.74255927 210.25 401.62109375 C209.27546875 401.61207031 208.3009375 401.60304688 207.296875 401.59375 C204.90599272 401.57030998 202.51562739 401.53749817 200.125 401.49609375 C200.14071045 402.1008252 200.1564209 402.70555664 200.17260742 403.32861328 C200.2353188 406.09267671 200.27410411 408.85658996 200.3125 411.62109375 C200.35020508 413.04808594 200.35020508 413.04808594 200.38867188 414.50390625 C200.4453506 419.94506363 200.22564284 423.80750032 197.125 428.49609375 C191.74452531 433.52944104 186.54400966 432.49609375 179.125 432.49609375 C179.125 448.66609375 179.125 464.83609375 179.125 481.49609375 C180.775 481.49609375 182.425 481.49609375 184.125 481.49609375 C186.36722268 483.59071314 187.04299425 484.96754347 187.51318359 487.99804688 C187.51656738 488.91521484 187.51995117 489.83238281 187.5234375 490.77734375 C187.52730469 491.78410156 187.53117187 492.79085938 187.53515625 493.828125 C187.51775391 495.39626953 187.51775391 495.39626953 187.5 496.99609375 C187.51160156 498.04152344 187.52320313 499.08695312 187.53515625 500.1640625 C187.53128906 501.17082031 187.52742188 502.17757813 187.5234375 503.21484375 C187.52005371 504.13201172 187.51666992 505.04917969 187.51318359 505.99414062 C187.03814493 509.05589925 186.40549299 510.39058161 184.125 512.49609375 C181.4453125 512.99780273 181.4453125 512.99780273 178.25 512.9921875 C177.10015625 512.99283203 175.9503125 512.99347656 174.765625 512.99414062 C173.56421875 512.97416016 172.3628125 512.95417969 171.125 512.93359375 C169.32289063 512.94422852 169.32289063 512.94422852 167.484375 512.95507812 C158.74554677 512.89139832 158.74554677 512.89139832 156.28271484 511.32250977 C154.66170271 508.76519391 154.73664076 506.85564444 154.7265625 503.83984375 C154.72269531 502.73511719 154.71882813 501.63039063 154.71484375 500.4921875 C154.73224609 498.76162109 154.73224609 498.76162109 154.75 496.99609375 C154.73839844 495.84238281 154.72679687 494.68867188 154.71484375 493.5 C154.71871094 492.39527344 154.72257812 491.29054688 154.7265625 490.15234375 C154.72994629 489.13978516 154.73333008 488.12722656 154.73681641 487.08398438 C155.125 484.49609375 155.125 484.49609375 156.33740234 482.64257812 C158.125 481.49609375 158.125 481.49609375 163.125 481.49609375 C163.125 465.32609375 163.125 449.15609375 163.125 432.49609375 C141.345 432.49609375 119.565 432.49609375 97.125 432.49609375 C97.125 448.66609375 97.125 464.83609375 97.125 481.49609375 C98.775 481.49609375 100.425 481.49609375 102.125 481.49609375 C104.36722268 483.59071314 105.04299425 484.96754347 105.51318359 487.99804688 C105.51656738 488.91521484 105.51995117 489.83238281 105.5234375 490.77734375 C105.52730469 491.78410156 105.53117187 492.79085938 105.53515625 493.828125 C105.51775391 495.39626953 105.51775391 495.39626953 105.5 496.99609375 C105.51160156 498.04152344 105.52320313 499.08695312 105.53515625 500.1640625 C105.53128906 501.17082031 105.52742188 502.17757813 105.5234375 503.21484375 C105.52005371 504.13201172 105.51666992 505.04917969 105.51318359 505.99414062 C105.03812171 509.05604889 104.40411792 510.3891329 102.125 512.49609375 C99.4453125 513.01367188 99.4453125 513.01367188 96.25 513.02734375 C95.10015625 513.0325 93.9503125 513.03765625 92.765625 513.04296875 C91.56421875 513.0275 90.3628125 513.01203125 89.125 512.99609375 C87.92359375 513.0115625 86.7221875 513.02703125 85.484375 513.04296875 C83.75960937 513.03523437 83.75960937 513.03523437 82 513.02734375 C80.41832031 513.02057617 80.41832031 513.02057617 78.8046875 513.01367188 C76.125 512.49609375 76.125 512.49609375 74.28271484 510.79296875 C72.91287528 508.07524403 72.73776634 506.25161881 72.7265625 503.21484375 C72.72269531 502.20808594 72.71882812 501.20132812 72.71484375 500.1640625 C72.73224609 498.59591797 72.73224609 498.59591797 72.75 496.99609375 C72.73259766 495.42794922 72.73259766 495.42794922 72.71484375 493.828125 C72.71871094 492.82136719 72.72257813 491.81460937 72.7265625 490.77734375 C72.72994629 489.86017578 72.73333008 488.94300781 72.73681641 487.99804688 C73.20700575 484.96754347 73.88277732 483.59071314 76.125 481.49609375 C77.775 481.49609375 79.425 481.49609375 81.125 481.49609375 C81.125 465.32609375 81.125 449.15609375 81.125 432.49609375 C59.345 432.49609375 37.565 432.49609375 15.125 432.49609375 C15.125 448.66609375 15.125 464.83609375 15.125 481.49609375 C16.775 481.49609375 18.425 481.49609375 20.125 481.49609375 C21.91259766 482.64257812 21.91259766 482.64257812 23.125 484.49609375 C23.51318359 487.08398438 23.51318359 487.08398438 23.5234375 490.15234375 C23.52730469 491.25707031 23.53117188 492.36179687 23.53515625 493.5 C23.51775391 495.23056641 23.51775391 495.23056641 23.5 496.99609375 C23.51160156 498.14980469 23.52320313 499.30351562 23.53515625 500.4921875 C23.53128906 501.59691406 23.52742187 502.70164062 23.5234375 503.83984375 C23.52005371 504.85240234 23.51666992 505.86496094 23.51318359 506.90820312 C23.125 509.49609375 23.125 509.49609375 21.96728516 511.32250977 C17.78223715 513.98849515 11.92051172 512.96189344 7.125 512.93359375 C5.92359375 512.95357422 4.7221875 512.97355469 3.484375 512.99414062 C2.33453125 512.99349609 1.1846875 512.99285156 0 512.9921875 C-1.05445313 512.99404053 -2.10890625 512.99589355 -3.1953125 512.99780273 C-5.875 512.49609375 -5.875 512.49609375 -7.71728516 510.79516602 C-9.08637252 508.07633521 -9.26223128 506.25226297 -9.2734375 503.21484375 C-9.27730469 502.20808594 -9.28117188 501.20132812 -9.28515625 500.1640625 C-9.26775391 498.59591797 -9.26775391 498.59591797 -9.25 496.99609375 C-9.26740234 495.42794922 -9.26740234 495.42794922 -9.28515625 493.828125 C-9.28128906 492.82136719 -9.27742187 491.81460937 -9.2734375 490.77734375 C-9.27005371 489.86017578 -9.26666992 488.94300781 -9.26318359 487.99804688 C-8.79299425 484.96754347 -8.11722268 483.59071314 -5.875 481.49609375 C-4.225 481.49609375 -2.575 481.49609375 -0.875 481.49609375 C-0.875 465.32609375 -0.875 449.15609375 -0.875 432.49609375 C-4.175 432.49609375 -7.475 432.49609375 -10.875 432.49609375 C-15.55302352 431.13795789 -18.43089661 429.6477217 -21.07666016 425.47998047 C-22.78248977 421.2409678 -22.27567832 416.61246682 -22.125 412.12109375 C-22.10695312 411.09886719 -22.08890625 410.07664062 -22.0703125 409.0234375 C-22.02339491 406.51334626 -21.95776729 404.00521611 -21.875 401.49609375 C-22.47449463 401.5118042 -23.07398926 401.52751465 -23.69165039 401.54370117 C-26.44016877 401.60653505 -29.18853542 401.6452361 -31.9375 401.68359375 C-33.35192383 401.72129883 -33.35192383 401.72129883 -34.79492188 401.75976562 C-41.72899346 401.83224721 -46.65186346 401.1094477 -52.1875 396.62109375 C-55.28669499 392.71840377 -56.12788476 389.11774101 -56.0703125 384.1953125 C-56.06386719 383.21884766 -56.05742188 382.24238281 -56.05078125 381.23632812 C-56.02564453 379.72522461 -56.02564453 379.72522461 -56 378.18359375 C-55.99097656 377.15685547 -55.98195313 376.13011719 -55.97265625 375.07226562 C-55.94916201 372.54663476 -55.91631131 370.02148565 -55.875 367.49609375 C-56.47973145 367.5118042 -57.08446289 367.52751465 -57.70751953 367.54370117 C-60.47158296 367.60641255 -63.23549621 367.64519786 -66 367.68359375 C-67.42699219 367.72129883 -67.42699219 367.72129883 -68.8828125 367.75976562 C-74.32179044 367.81642165 -78.19099192 367.6012227 -82.875 364.49609375 C-88.05701138 358.77801223 -86.875 354.83023891 -86.875 346.49609375 C-103.045 346.49609375 -119.215 346.49609375 -135.875 346.49609375 C-135.875 348.14609375 -135.875 349.79609375 -135.875 351.49609375 C-139.58559775 355.16662025 -144.01584731 354.8863834 -148.93945312 354.90625 C-149.92880859 354.89464844 -150.91816406 354.88304687 -151.9375 354.87109375 C-152.93072266 354.88269531 -153.92394531 354.89429688 -154.94726562 354.90625 C-156.38295898 354.90044922 -156.38295898 354.90044922 -157.84765625 354.89453125 C-158.71656494 354.89114746 -159.58547363 354.88776367 -160.48071289 354.88427734 C-163.4766542 354.3985481 -164.80196854 353.72065225 -166.875 351.49609375 C-167.37670898 348.81640625 -167.37670898 348.81640625 -167.37109375 345.62109375 C-167.37173828 344.47125 -167.37238281 343.32140625 -167.37304688 342.13671875 C-167.35306641 340.9353125 -167.33308594 339.73390625 -167.3125 338.49609375 C-167.31958984 337.2946875 -167.32667969 336.09328125 -167.33398438 334.85546875 C-167.27030457 326.11664052 -167.27030457 326.11664052 -165.70141602 323.65380859 C-163.14410016 322.03279646 -161.23455069 322.10773451 -158.21875 322.09765625 C-157.11402344 322.09378906 -156.00929687 322.08992188 -154.87109375 322.0859375 C-153.71738281 322.09753906 -152.56367188 322.10914063 -151.375 322.12109375 C-149.64443359 322.10369141 -149.64443359 322.10369141 -147.87890625 322.0859375 C-146.77417969 322.08980469 -145.66945312 322.09367187 -144.53125 322.09765625 C-143.51869141 322.10104004 -142.50613281 322.10442383 -141.46289062 322.10791016 C-138.875 322.49609375 -138.875 322.49609375 -137.02148438 323.70849609 C-135.875 325.49609375 -135.875 325.49609375 -135.875 330.49609375 C-119.705 330.49609375 -103.535 330.49609375 -86.875 330.49609375 C-86.875 308.71609375 -86.875 286.93609375 -86.875 264.49609375 C-103.045 264.49609375 -119.215 264.49609375 -135.875 264.49609375 C-135.875 266.14609375 -135.875 267.79609375 -135.875 269.49609375 C-137.96961939 271.73831643 -139.34644972 272.414088 -142.37695312 272.88427734 C-143.29412109 272.88766113 -144.21128906 272.89104492 -145.15625 272.89453125 C-146.16300781 272.89839844 -147.16976562 272.90226562 -148.20703125 272.90625 C-149.77517578 272.88884766 -149.77517578 272.88884766 -151.375 272.87109375 C-152.42042969 272.88269531 -153.46585938 272.89429688 -154.54296875 272.90625 C-155.54972656 272.90238281 -156.55648437 272.89851563 -157.59375 272.89453125 C-158.96950195 272.88945557 -158.96950195 272.88945557 -160.37304688 272.88427734 C-163.43495514 272.40921546 -164.76803915 271.77521167 -166.875 269.49609375 C-167.39257812 266.81640625 -167.39257812 266.81640625 -167.40625 263.62109375 C-167.41140625 262.47125 -167.4165625 261.32140625 -167.421875 260.13671875 C-167.40640625 258.9353125 -167.3909375 257.73390625 -167.375 256.49609375 C-167.39046875 255.2946875 -167.4059375 254.09328125 -167.421875 252.85546875 C-167.41671875 251.705625 -167.4115625 250.55578125 -167.40625 249.37109375 C-167.40173828 248.31664062 -167.39722656 247.2621875 -167.39257812 246.17578125 C-166.875 243.49609375 -166.875 243.49609375 -165.171875 241.65380859 C-162.45415028 240.28396903 -160.63052506 240.10886009 -157.59375 240.09765625 C-156.58699219 240.09378906 -155.58023438 240.08992187 -154.54296875 240.0859375 C-152.97482422 240.10333984 -152.97482422 240.10333984 -151.375 240.12109375 C-150.32957031 240.10949219 -149.28414062 240.09789062 -148.20703125 240.0859375 C-147.20027344 240.08980469 -146.19351563 240.09367188 -145.15625 240.09765625 C-144.23908203 240.10104004 -143.32191406 240.10442383 -142.37695312 240.10791016 C-139.34644972 240.5780995 -137.96961939 241.25387107 -135.875 243.49609375 C-135.875 245.14609375 -135.875 246.79609375 -135.875 248.49609375 C-119.705 248.49609375 -103.535 248.49609375 -86.875 248.49609375 C-86.875 226.71609375 -86.875 204.93609375 -86.875 182.49609375 C-103.045 182.49609375 -119.215 182.49609375 -135.875 182.49609375 C-135.875 184.14609375 -135.875 185.79609375 -135.875 187.49609375 C-137.02148438 189.28369141 -137.02148438 189.28369141 -138.875 190.49609375 C-141.46289063 190.88427734 -141.46289063 190.88427734 -144.53125 190.89453125 C-146.18833984 190.90033203 -146.18833984 190.90033203 -147.87890625 190.90625 C-149.03261719 190.89464844 -150.18632812 190.88304687 -151.375 190.87109375 C-152.52871094 190.88269531 -153.68242187 190.89429688 -154.87109375 190.90625 C-155.97582031 190.90238281 -157.08054688 190.89851562 -158.21875 190.89453125 C-159.23130859 190.89114746 -160.24386719 190.88776367 -161.28710938 190.88427734 C-163.875 190.49609375 -163.875 190.49609375 -165.70141602 189.33837891 C-168.3674014 185.1533309 -167.34079969 179.29160547 -167.3125 174.49609375 C-167.33248047 173.2946875 -167.35246094 172.09328125 -167.37304688 170.85546875 C-167.37240234 169.705625 -167.37175781 168.55578125 -167.37109375 167.37109375 C-167.37294678 166.31664062 -167.3747998 165.2621875 -167.37670898 164.17578125 C-166.875 161.49609375 -166.875 161.49609375 -165.15820312 159.65380859 C-162.51826936 158.31521087 -160.79854827 158.1091479 -157.84765625 158.09765625 C-156.89052734 158.09378906 -155.93339844 158.08992187 -154.94726562 158.0859375 C-153.95404297 158.09753906 -152.96082031 158.10914063 -151.9375 158.12109375 C-150.94814453 158.10949219 -149.95878906 158.09789062 -148.93945312 158.0859375 C-139.28299615 158.12490101 -139.28299615 158.12490101 -135.875 161.49609375 C-135.875 163.14609375 -135.875 164.79609375 -135.875 166.49609375 C-119.705 166.49609375 -103.535 166.49609375 -86.875 166.49609375 C-86.875 162.86609375 -86.875 159.23609375 -86.875 155.49609375 C-85.35752552 151.24716522 -83.76598319 148.80636502 -79.875 146.49609375 C-76.93368109 145.51565411 -75.04998335 145.37988173 -71.98828125 145.3984375 C-71.05048828 145.40166016 -70.11269531 145.40488281 -69.14648438 145.40820312 C-67.68178711 145.42077148 -67.68178711 145.42077148 -66.1875 145.43359375 C-65.19943359 145.43810547 -64.21136719 145.44261719 -63.19335938 145.44726562 C-60.75384526 145.45905072 -58.31445311 145.47550364 -55.875 145.49609375 C-55.89594727 144.87154297 -55.91689453 144.24699219 -55.93847656 143.60351562 C-56.02235844 140.73454315 -56.07388511 137.86582967 -56.125 134.99609375 C-56.15851563 134.01382813 -56.19203125 133.0315625 -56.2265625 132.01953125 C-56.31117634 125.67349361 -55.66530637 120.73568393 -51.875 115.49609375 C-47.46990993 112.08214894 -43.35647788 111.36510913 -37.890625 111.3984375 C-36.95605469 111.40166016 -36.02148438 111.40488281 -35.05859375 111.40820312 C-34.09050781 111.41658203 -33.12242187 111.42496094 -32.125 111.43359375 C-31.14144531 111.43810547 -30.15789062 111.44261719 -29.14453125 111.44726562 C-26.72129209 111.45902892 -24.29817727 111.47546691 -21.875 111.49609375 C-21.89594727 110.86106934 -21.91689453 110.22604492 -21.93847656 109.57177734 C-22.02204581 106.67171299 -22.07378774 103.77190259 -22.125 100.87109375 C-22.15851563 99.87207031 -22.19203125 98.87304688 -22.2265625 97.84375 C-22.30785008 91.70653795 -22.01614627 88.14262581 -17.875 83.49609375 C-12.08241896 79.25761982 -8.91276096 80.49609375 -0.875 80.49609375 C-0.875 64.32609375 -0.875 48.15609375 -0.875 31.49609375 C-2.525 31.49609375 -4.175 31.49609375 -5.875 31.49609375 C-9.5455265 27.785496 -9.26528965 23.35524644 -9.28515625 18.43164062 C-9.26775391 16.94760742 -9.26775391 16.94760742 -9.25 15.43359375 C-9.26160156 14.44037109 -9.27320313 13.44714844 -9.28515625 12.42382812 C-9.28128906 11.46669922 -9.27742187 10.50957031 -9.2734375 9.5234375 C-9.27005371 8.65452881 -9.26666992 7.78562012 -9.26318359 6.89038086 C-8.3169405 1.05402489 -5.5706755 -0.00978954 0 0 Z " fill="#62A2F9" transform="translate(166.875,-0.49609375)"/>
<path d="M0 0 C0.72872905 -0.00297112 1.45745809 -0.00594224 2.20826983 -0.0090034 C4.65088212 -0.01767707 7.09344531 -0.01919752 9.53607178 -0.02069092 C11.28720708 -0.02532005 13.03834137 -0.03034484 14.78947449 -0.03573608 C19.5478871 -0.04885331 24.30628561 -0.05530378 29.06471348 -0.05974674 C32.03843182 -0.06267869 35.01214632 -0.06678375 37.98586273 -0.07125092 C47.29236942 -0.08492436 56.59886731 -0.09459164 65.90538335 -0.09845281 C76.64377495 -0.10293266 87.3820392 -0.12047784 98.12039208 -0.1494534 C106.42371641 -0.17107972 114.72700493 -0.1811576 123.03035712 -0.18249393 C127.98816559 -0.18354131 132.94585433 -0.18943504 137.90363312 -0.20731354 C142.56906446 -0.22381051 147.23428627 -0.22594181 151.8997364 -0.21717453 C153.60892104 -0.21640501 155.31811702 -0.22073558 157.02727318 -0.23063278 C159.36730666 -0.24338491 161.70660166 -0.23745827 164.04663086 -0.22705078 C165.35406879 -0.22851734 166.66150673 -0.2299839 168.008564 -0.2314949 C177.36769784 0.69216285 183.5825407 5.2112717 189.77728271 12.14044189 C194.44029485 19.32659073 195.89748546 25.69402626 195.91772461 34.20420837 C195.92069573 34.90379585 195.92366685 35.60338332 195.92672801 36.32417041 C195.93538141 38.66227248 195.93692041 41.00032315 195.93841553 43.33843994 C195.94304612 45.01751311 195.94807111 46.69658523 195.95346069 48.37565613 C195.96656444 52.93373697 195.97302584 57.49180309 195.97747135 62.04989982 C195.98040568 64.90018457 195.9845112 67.75046533 195.98897552 70.60074806 C196.00264586 79.52602516 196.01231448 88.4512931 196.01617742 97.37657994 C196.0206555 107.6655499 196.03819378 117.95438683 196.06717801 128.24331635 C196.08882538 136.20529376 196.09888335 144.16723382 196.10021853 152.12924033 C196.10126448 156.88030193 196.10712731 161.6312384 196.12503815 166.38226891 C196.14157145 170.85484008 196.14364891 175.32719278 196.13489914 179.79978371 C196.13413154 181.43556429 196.13843467 183.07135688 196.14835739 184.70710754 C196.22652415 198.40300034 194.94825944 208.68175472 185.11322021 218.86309814 C178.95061112 224.58954084 172.37197321 226.51265155 164.04231262 226.52812195 C162.93902553 226.53620025 162.93902553 226.53620025 161.8134498 226.54444176 C159.37161315 226.55864343 156.9303246 226.55163724 154.48846436 226.54449463 C152.72850614 226.55020228 150.96855162 226.55716807 149.20860291 226.56529236 C144.44410784 226.58319494 139.67979724 226.58206088 134.91527867 226.57634997 C130.93173098 226.57325402 126.94821851 226.57935507 122.96467584 226.58538872 C113.56437227 226.59942272 104.1641596 226.59788192 94.76385498 226.58648682 C85.07872786 226.57500561 75.39387766 226.58908391 65.70878702 226.61588329 C57.38072103 226.63806153 49.05274183 226.64467291 40.72464842 226.63880688 C35.75623054 226.63544132 30.78799017 226.63782578 25.81959724 226.65505791 C21.1466446 226.6705589 16.47410129 226.66653657 11.80116463 226.64775276 C10.09079057 226.64407566 8.38038598 226.64714964 6.67004013 226.65763855 C-9.90763734 226.75150592 -9.90763734 226.75150592 -17.22271729 222.14044189 C-18.41961182 221.39794189 -18.41961182 221.39794189 -19.64068604 220.64044189 C-26.3242365 214.97491567 -30.55174031 207.95780439 -31.76983833 199.21231842 C-32.05302433 194.63330983 -32.00083674 190.05865136 -31.95147705 185.47344971 C-31.95470214 183.72112898 -31.96052801 181.96881143 -31.96873474 180.21650696 C-31.98318018 175.49130311 -31.96044337 170.7669595 -31.92987561 166.04185963 C-31.90337724 161.08219821 -31.9088094 156.12255959 -31.90995789 151.1628418 C-31.90715559 142.84093973 -31.88120292 134.51936751 -31.84014893 126.1975708 C-31.79291829 116.58847758 -31.77715721 106.97974463 -31.77935559 97.37054372 C-31.78138439 87.11602815 -31.76055504 76.86165061 -31.73301578 66.60717678 C-31.72663488 63.66130228 -31.72449407 60.71545017 -31.72329903 57.7695694 C-31.72027737 53.13679346 -31.70189566 48.50431784 -31.67180061 43.87164116 C-31.66306739 42.17537463 -31.65934103 40.47907353 -31.66108322 38.78278542 C-31.66256528 36.46062866 -31.64549499 34.13930136 -31.62385559 31.81726074 C-31.61882806 30.52021336 -31.61380053 29.22316597 -31.60862064 27.88681412 C-30.65207493 18.60061277 -26.20731459 11.33702363 -19.02349854 5.46075439 C-12.82010583 0.91249684 -7.51160569 0.01711003 0 0 Z " fill="#EBF3FE" transform="translate(174.22271728515625,142.85955810546875)"/>
<path d="M0 0 C1.14984375 -0.00064453 2.2996875 -0.00128906 3.484375 -0.00195312 C5.28648437 0.02801758 5.28648437 0.02801758 7.125 0.05859375 C8.32640625 0.05150391 9.5278125 0.04441406 10.765625 0.03710938 C19.50445323 0.10078918 19.50445323 0.10078918 21.96728516 1.66967773 C23.58829729 4.22699359 23.51335924 6.13654306 23.5234375 9.15234375 C23.52923828 10.80943359 23.52923828 10.80943359 23.53515625 12.5 C23.52355469 13.65371094 23.51195312 14.80742187 23.5 15.99609375 C23.51160156 17.14980469 23.52320313 18.30351562 23.53515625 19.4921875 C23.53128906 20.59691406 23.52742188 21.70164062 23.5234375 22.83984375 C23.52005371 23.85240234 23.51666992 24.86496094 23.51318359 25.90820312 C23.125 28.49609375 23.125 28.49609375 21.91259766 30.34960938 C20.125 31.49609375 20.125 31.49609375 15.125 31.49609375 C15.125 47.66609375 15.125 63.83609375 15.125 80.49609375 C36.905 80.49609375 58.685 80.49609375 81.125 80.49609375 C81.125 64.32609375 81.125 48.15609375 81.125 31.49609375 C79.475 31.49609375 77.825 31.49609375 76.125 31.49609375 C73.8266561 29.36945076 73.19728818 27.98206129 72.73681641 24.88647461 C72.73174072 23.43833374 72.73174072 23.43833374 72.7265625 21.9609375 C72.72269531 20.90455078 72.71882813 19.84816406 72.71484375 18.75976562 C72.72644531 17.66212891 72.73804688 16.56449219 72.75 15.43359375 C72.73839844 14.33208984 72.72679687 13.23058594 72.71484375 12.09570312 C72.71871094 11.04060547 72.72257812 9.98550781 72.7265625 8.8984375 C72.72994629 7.93413818 72.73333008 6.96983887 72.73681641 5.97631836 C73.125 3.49609375 73.125 3.49609375 74.28271484 1.68554688 C78.45240754 -1.00657383 84.3311517 0.03030387 89.125 0.05859375 C90.92710937 0.02862305 90.92710937 0.02862305 92.765625 -0.00195312 C93.91546875 -0.00130859 95.0653125 -0.00066406 96.25 0 C97.30445313 -0.00185303 98.35890625 -0.00370605 99.4453125 -0.00561523 C102.125 0.49609375 102.125 0.49609375 103.96728516 2.19702148 C105.33637252 4.91585229 105.51223128 6.73992453 105.5234375 9.77734375 C105.52730469 10.78410156 105.53117187 11.79085938 105.53515625 12.828125 C105.52355469 13.87355469 105.51195312 14.91898438 105.5 15.99609375 C105.51160156 17.04152344 105.52320313 18.08695313 105.53515625 19.1640625 C105.53128906 20.17082031 105.52742188 21.17757813 105.5234375 22.21484375 C105.52005371 23.13201172 105.51666992 24.04917969 105.51318359 24.99414062 C105.04299425 28.02464403 104.36722268 29.40147436 102.125 31.49609375 C100.475 31.49609375 98.825 31.49609375 97.125 31.49609375 C97.125 47.66609375 97.125 63.83609375 97.125 80.49609375 C118.905 80.49609375 140.685 80.49609375 163.125 80.49609375 C163.125 64.32609375 163.125 48.15609375 163.125 31.49609375 C161.475 31.49609375 159.825 31.49609375 158.125 31.49609375 C156.33740234 30.34960937 156.33740234 30.34960937 155.125 28.49609375 C154.73681641 25.90820312 154.73681641 25.90820312 154.7265625 22.83984375 C154.72269531 21.73511719 154.71882812 20.63039063 154.71484375 19.4921875 C154.73224609 17.76162109 154.73224609 17.76162109 154.75 15.99609375 C154.73839844 14.84238281 154.72679687 13.68867188 154.71484375 12.5 C154.71871094 11.39527344 154.72257813 10.29054688 154.7265625 9.15234375 C154.72994629 8.13978516 154.73333008 7.12722656 154.73681641 6.08398438 C155.125 3.49609375 155.125 3.49609375 156.28271484 1.66967773 C160.46776285 -0.99630765 166.32948828 0.03029406 171.125 0.05859375 C172.92710937 0.02862305 172.92710937 0.02862305 174.765625 -0.00195312 C175.91546875 -0.00130859 177.0653125 -0.00066406 178.25 0 C179.30445313 -0.00185303 180.35890625 -0.00370605 181.4453125 -0.00561523 C184.125 0.49609375 184.125 0.49609375 185.96728516 2.19702148 C187.33637252 4.91585229 187.51223128 6.73992453 187.5234375 9.77734375 C187.52730469 10.78410156 187.53117188 11.79085938 187.53515625 12.828125 C187.51775391 14.39626953 187.51775391 14.39626953 187.5 15.99609375 C187.51160156 17.04152344 187.52320313 18.08695313 187.53515625 19.1640625 C187.53128906 20.17082031 187.52742187 21.17757813 187.5234375 22.21484375 C187.52005371 23.13201172 187.51666992 24.04917969 187.51318359 24.99414062 C187.04299425 28.02464403 186.36722268 29.40147436 184.125 31.49609375 C182.475 31.49609375 180.825 31.49609375 179.125 31.49609375 C179.125 47.66609375 179.125 63.83609375 179.125 80.49609375 C182.755 80.49609375 186.385 80.49609375 190.125 80.49609375 C194.37392853 82.01356823 196.81472873 83.60511056 199.125 87.49609375 C201.76233873 95.40810993 200.125 104.15609641 200.125 112.49609375 C126.865 112.49609375 53.605 112.49609375 -21.875 112.49609375 C-21.875 89.49609375 -21.875 89.49609375 -17.875 83.49609375 C-12.08241896 79.25761982 -8.91276096 80.49609375 -0.875 80.49609375 C-0.875 64.32609375 -0.875 48.15609375 -0.875 31.49609375 C-2.525 31.49609375 -4.175 31.49609375 -5.875 31.49609375 C-9.5455265 27.785496 -9.26528965 23.35524644 -9.28515625 18.43164062 C-9.27355469 17.44228516 -9.26195312 16.45292969 -9.25 15.43359375 C-9.26160156 14.44037109 -9.27320313 13.44714844 -9.28515625 12.42382812 C-9.28128906 11.46669922 -9.27742187 10.50957031 -9.2734375 9.5234375 C-9.27005371 8.65452881 -9.26666992 7.78562012 -9.26318359 6.89038086 C-8.3169405 1.05402489 -5.5706755 -0.00978954 0 0 Z " fill="#746E78" transform="translate(166.875,-0.49609375)"/>
<path d="M0 0 C73.26 0 146.52 0 222 0 C222 22 222 22 219 28 C213.61952531 33.03334729 208.41900966 32 201 32 C201 48.17 201 64.34 201 81 C202.65 81 204.3 81 206 81 C208.24222268 83.09461939 208.91799425 84.47144972 209.38818359 87.50195312 C209.39325928 88.87770508 209.39325928 88.87770508 209.3984375 90.28125 C209.40230469 91.28800781 209.40617188 92.29476562 209.41015625 93.33203125 C209.39275391 94.90017578 209.39275391 94.90017578 209.375 96.5 C209.38660156 97.54542969 209.39820313 98.59085937 209.41015625 99.66796875 C209.40628906 100.67472656 209.40242187 101.68148437 209.3984375 102.71875 C209.39505371 103.63591797 209.39166992 104.55308594 209.38818359 105.49804688 C208.91314493 108.5598055 208.28049299 109.89448786 206 112 C203.3203125 112.50170898 203.3203125 112.50170898 200.125 112.49609375 C198.97515625 112.49673828 197.8253125 112.49738281 196.640625 112.49804688 C194.83851563 112.46807617 194.83851563 112.46807617 193 112.4375 C191.19789063 112.44813477 191.19789063 112.44813477 189.359375 112.45898438 C180.62054677 112.39530457 180.62054677 112.39530457 178.15771484 110.82641602 C176.53670271 108.26910016 176.61164076 106.35955069 176.6015625 103.34375 C176.59769531 102.23902344 176.59382812 101.13429688 176.58984375 99.99609375 C176.60724609 98.26552734 176.60724609 98.26552734 176.625 96.5 C176.61339844 95.34628906 176.60179687 94.19257813 176.58984375 93.00390625 C176.59371094 91.89917969 176.59757813 90.79445313 176.6015625 89.65625 C176.60494629 88.64369141 176.60833008 87.63113281 176.61181641 86.58789062 C177 84 177 84 178.21240234 82.14648438 C180 81 180 81 185 81 C185 64.83 185 48.66 185 32 C163.22 32 141.44 32 119 32 C119 48.17 119 64.34 119 81 C120.65 81 122.3 81 124 81 C126.24222268 83.09461939 126.91799425 84.47144972 127.38818359 87.50195312 C127.39325928 88.87770508 127.39325928 88.87770508 127.3984375 90.28125 C127.40230469 91.28800781 127.40617187 92.29476562 127.41015625 93.33203125 C127.39855469 94.37746094 127.38695312 95.42289062 127.375 96.5 C127.38660156 97.54542969 127.39820313 98.59085937 127.41015625 99.66796875 C127.40628906 100.67472656 127.40242188 101.68148437 127.3984375 102.71875 C127.39505371 103.63591797 127.39166992 104.55308594 127.38818359 105.49804688 C126.91312171 108.55995514 126.27911792 109.89303915 124 112 C121.3203125 112.51757812 121.3203125 112.51757812 118.125 112.53125 C116.97515625 112.53640625 115.8253125 112.5415625 114.640625 112.546875 C113.43921875 112.53140625 112.2378125 112.5159375 111 112.5 C109.79859375 112.51546875 108.5971875 112.5309375 107.359375 112.546875 C105.63460937 112.53914062 105.63460937 112.53914062 103.875 112.53125 C102.29332031 112.52448242 102.29332031 112.52448242 100.6796875 112.51757812 C98 112 98 112 96.15771484 110.296875 C94.78787528 107.57915028 94.61276634 105.75552506 94.6015625 102.71875 C94.59769531 101.71199219 94.59382813 100.70523438 94.58984375 99.66796875 C94.60144531 98.62253906 94.61304688 97.57710938 94.625 96.5 C94.61339844 95.45457031 94.60179687 94.40914063 94.58984375 93.33203125 C94.59371094 92.32527344 94.59757812 91.31851563 94.6015625 90.28125 C94.60494629 89.36408203 94.60833008 88.44691406 94.61181641 87.50195312 C95.08200575 84.47144972 95.75777732 83.09461939 98 81 C99.65 81 101.3 81 103 81 C103 64.83 103 48.66 103 32 C81.22 32 59.44 32 37 32 C37 48.17 37 64.34 37 81 C38.65 81 40.3 81 42 81 C43.78759766 82.14648438 43.78759766 82.14648438 45 84 C45.38818359 86.58789062 45.38818359 86.58789062 45.3984375 89.65625 C45.40423828 91.31333984 45.40423828 91.31333984 45.41015625 93.00390625 C45.39855469 94.15761719 45.38695312 95.31132812 45.375 96.5 C45.38660156 97.65371094 45.39820313 98.80742187 45.41015625 99.99609375 C45.40628906 101.10082031 45.40242188 102.20554687 45.3984375 103.34375 C45.39505371 104.35630859 45.39166992 105.36886719 45.38818359 106.41210938 C45 109 45 109 43.84228516 110.82641602 C39.65723715 113.4924014 33.79551172 112.46579969 29 112.4375 C27.79859375 112.45748047 26.5971875 112.47746094 25.359375 112.49804688 C24.20953125 112.49740234 23.0596875 112.49675781 21.875 112.49609375 C20.82054687 112.49794678 19.76609375 112.4997998 18.6796875 112.50170898 C16 112 16 112 14.15771484 110.29907227 C12.78862748 107.58024146 12.61276872 105.75616922 12.6015625 102.71875 C12.59769531 101.71199219 12.59382812 100.70523438 12.58984375 99.66796875 C12.60144531 98.62253906 12.61304688 97.57710938 12.625 96.5 C12.61339844 95.45457031 12.60179687 94.40914063 12.58984375 93.33203125 C12.59371094 92.32527344 12.59757813 91.31851563 12.6015625 90.28125 C12.60494629 89.36408203 12.60833008 88.44691406 12.61181641 87.50195312 C13.08200575 84.47144972 13.75777732 83.09461939 16 81 C17.65 81 19.3 81 21 81 C21 64.83 21 48.66 21 32 C17.7 32 14.4 32 11 32 C4.5626941 30.13110474 3.98296284 28.97444426 0 23 C0 15.41 0 7.82 0 0 Z " fill="#746E78" transform="translate(145,400)"/>
<path d="M0 0 C0.94681641 -0.020625 1.89363281 -0.04125 2.86914062 -0.0625 C8.28216235 -0.09271924 12.15079938 0.17208228 16.8125 3.25 C21.99451138 8.96808152 20.8125 12.91585484 20.8125 21.25 C36.9825 21.25 53.1525 21.25 69.8125 21.25 C69.8125 19.6 69.8125 17.95 69.8125 16.25 C71.90711939 14.00777732 73.28394972 13.33200575 76.31445312 12.86181641 C77.23162109 12.85843262 78.14878906 12.85504883 79.09375 12.8515625 C80.60388672 12.84576172 80.60388672 12.84576172 82.14453125 12.83984375 C83.71267578 12.85724609 83.71267578 12.85724609 85.3125 12.875 C86.35792969 12.86339844 87.40335937 12.85179687 88.48046875 12.83984375 C89.48722656 12.84371094 90.49398437 12.84757813 91.53125 12.8515625 C92.44841797 12.85494629 93.36558594 12.85833008 94.31054688 12.86181641 C97.3723055 13.33685507 98.70698786 13.96950701 100.8125 16.25 C101.31420898 18.9296875 101.31420898 18.9296875 101.30859375 22.125 C101.30923828 23.27484375 101.30988281 24.4246875 101.31054688 25.609375 C101.29056641 26.81078125 101.27058594 28.0121875 101.25 29.25 C101.25708984 30.45140625 101.26417969 31.6528125 101.27148438 32.890625 C101.20780457 41.62945323 101.20780457 41.62945323 99.63891602 44.09228516 C97.08160016 45.71329729 95.17205069 45.63835924 92.15625 45.6484375 C91.05152344 45.65230469 89.94679688 45.65617187 88.80859375 45.66015625 C87.65488281 45.64855469 86.50117188 45.63695312 85.3125 45.625 C84.15878906 45.63660156 83.00507813 45.64820313 81.81640625 45.66015625 C80.71167969 45.65628906 79.60695313 45.65242188 78.46875 45.6484375 C77.45619141 45.64505371 76.44363281 45.64166992 75.40039062 45.63818359 C72.8125 45.25 72.8125 45.25 70.95898438 44.03759766 C69.8125 42.25 69.8125 42.25 69.8125 37.25 C53.6425 37.25 37.4725 37.25 20.8125 37.25 C20.8125 59.03 20.8125 80.81 20.8125 103.25 C36.9825 103.25 53.1525 103.25 69.8125 103.25 C69.8125 101.6 69.8125 99.95 69.8125 98.25 C71.90711939 96.00777732 73.28394972 95.33200575 76.31445312 94.86181641 C77.23162109 94.85843262 78.14878906 94.85504883 79.09375 94.8515625 C80.60388672 94.84576172 80.60388672 94.84576172 82.14453125 94.83984375 C83.18996094 94.85144531 84.23539062 94.86304688 85.3125 94.875 C86.35792969 94.86339844 87.40335937 94.85179687 88.48046875 94.83984375 C89.48722656 94.84371094 90.49398437 94.84757812 91.53125 94.8515625 C92.44841797 94.85494629 93.36558594 94.85833008 94.31054688 94.86181641 C97.37245514 95.33687829 98.70553915 95.97088208 100.8125 98.25 C101.33007812 100.9296875 101.33007812 100.9296875 101.34375 104.125 C101.35148438 105.84976563 101.35148438 105.84976563 101.359375 107.609375 C101.34390625 108.81078125 101.3284375 110.0121875 101.3125 111.25 C101.33570313 113.05210937 101.33570313 113.05210937 101.359375 114.890625 C101.35421875 116.04046875 101.3490625 117.1903125 101.34375 118.375 C101.33923828 119.42945313 101.33472656 120.48390625 101.33007812 121.5703125 C100.8125 124.25 100.8125 124.25 99.109375 126.09228516 C96.39165028 127.46212472 94.56802506 127.63723366 91.53125 127.6484375 C90.02111328 127.65423828 90.02111328 127.65423828 88.48046875 127.66015625 C87.43503906 127.64855469 86.38960938 127.63695312 85.3125 127.625 C84.26707031 127.63660156 83.22164063 127.64820313 82.14453125 127.66015625 C81.13777344 127.65628906 80.13101563 127.65242188 79.09375 127.6484375 C78.17658203 127.64505371 77.25941406 127.64166992 76.31445312 127.63818359 C73.28394972 127.16799425 71.90711939 126.49222268 69.8125 124.25 C69.8125 122.6 69.8125 120.95 69.8125 119.25 C53.6425 119.25 37.4725 119.25 20.8125 119.25 C20.8125 141.03 20.8125 162.81 20.8125 185.25 C36.9825 185.25 53.1525 185.25 69.8125 185.25 C69.8125 183.6 69.8125 181.95 69.8125 180.25 C70.95898438 178.46240234 70.95898438 178.46240234 72.8125 177.25 C75.40039063 176.86181641 75.40039063 176.86181641 78.46875 176.8515625 C79.57347656 176.84769531 80.67820312 176.84382812 81.81640625 176.83984375 C82.97011719 176.85144531 84.12382812 176.86304688 85.3125 176.875 C87.04306641 176.85759766 87.04306641 176.85759766 88.80859375 176.83984375 C89.91332031 176.84371094 91.01804687 176.84757813 92.15625 176.8515625 C93.16880859 176.85494629 94.18136719 176.85833008 95.22460938 176.86181641 C97.8125 177.25 97.8125 177.25 99.63891602 178.40771484 C102.3049014 182.59276285 101.27829969 188.45448828 101.25 193.25 C101.26998047 194.45140625 101.28996094 195.6528125 101.31054688 196.890625 C101.30958008 198.61539063 101.30958008 198.61539063 101.30859375 200.375 C101.31044678 201.42945313 101.3122998 202.48390625 101.31420898 203.5703125 C100.8125 206.25 100.8125 206.25 99.09570312 208.09228516 C96.45576936 209.43088288 94.73604827 209.63694585 91.78515625 209.6484375 C90.82802734 209.65230469 89.87089844 209.65617188 88.88476562 209.66015625 C87.89154297 209.64855469 86.89832031 209.63695312 85.875 209.625 C84.88564453 209.63660156 83.89628906 209.64820313 82.87695312 209.66015625 C73.22049615 209.62119274 73.22049615 209.62119274 69.8125 206.25 C69.8125 204.6 69.8125 202.95 69.8125 201.25 C53.6425 201.25 37.4725 201.25 20.8125 201.25 C20.8125 204.88 20.8125 208.51 20.8125 212.25 C19.29502552 216.49892853 17.70348319 218.93972873 13.8125 221.25 C10.89446048 222.22267984 8.99849867 222.37881796 5.9609375 222.3828125 C5.02765625 222.38410156 4.094375 222.38539063 3.1328125 222.38671875 C2.16085937 222.38285156 1.18890625 222.37898437 0.1875 222.375 C-0.7921875 222.37886719 -1.771875 222.38273438 -2.78125 222.38671875 C-3.71195312 222.38542969 -4.64265625 222.38414062 -5.6015625 222.3828125 C-6.88474365 222.38112061 -6.88474365 222.38112061 -8.19384766 222.37939453 C-10.1875 222.25 -10.1875 222.25 -11.1875 221.25 C-11.28763994 218.42020005 -11.32189041 215.6147324 -11.31448364 212.78442383 C-11.31604363 211.88589345 -11.31760362 210.98736307 -11.31921089 210.0616045 C-11.32322494 207.02673046 -11.32002968 203.99190574 -11.31689453 200.95703125 C-11.31824839 198.79104584 -11.32002824 196.62506066 -11.32220459 194.45907593 C-11.32678072 188.55842403 -11.32498863 182.65778952 -11.3218255 176.7571373 C-11.31930283 170.59696148 -11.32163918 164.4367872 -11.32321167 158.27661133 C-11.32503364 147.929522 -11.32262635 137.58243981 -11.31787109 127.23535156 C-11.31242842 115.25373314 -11.31419106 103.27213924 -11.3196975 91.29052067 C-11.32422786 81.02390172 -11.32487956 70.75728792 -11.32225883 60.4906683 C-11.32069563 54.3498653 -11.32050346 48.20907031 -11.32379532 42.06826782 C-11.32667291 36.29654769 -11.3247004 30.5248496 -11.31890106 24.75313187 C-11.31757286 22.6282009 -11.31796859 20.5032681 -11.32016373 18.37833786 C-11.32287289 15.49072513 -11.31949699 12.60318425 -11.31448364 9.71557617 C-11.31671436 8.86316251 -11.31894509 8.01074884 -11.32124341 7.13250446 C-11.29114602 -1.72817109 -7.82251155 0.04174789 0 0 Z " fill="#655E67" transform="translate(411.1875,144.75)"/>
<path d="M0 0 C0.98291016 0.00322266 1.96582031 0.00644531 2.97851562 0.00976562 C4.51475586 0.02233398 4.51475586 0.02233398 6.08203125 0.03515625 C7.11779297 0.03966797 8.15355469 0.04417969 9.22070312 0.04882812 C11.77870391 0.06061615 14.33658858 0.0770711 16.89453125 0.09765625 C16.91785651 28.89520536 16.93550858 57.69275307 16.94634342 86.49030972 C16.95150718 99.86048658 16.95852112 113.23065707 16.9699707 126.60083008 C16.97991512 138.24964831 16.9863841 149.8984623 16.98861974 161.54728466 C16.98992726 167.71940419 16.99301571 173.89151159 17.00026131 180.06362724 C17.00701771 185.86569923 17.00914899 191.66775401 17.00763893 197.46982956 C17.00791543 199.6060489 17.00992279 201.74226877 17.01373672 203.87848473 C17.01866805 206.78147376 17.01753162 209.68439671 17.01478577 212.58738708 C17.01769861 213.44437382 17.02061145 214.30136055 17.02361256 215.18431658 C17.00865246 220.98353504 17.00865246 220.98353504 15.89453125 222.09765625 C12.50700681 222.37814378 9.10477798 222.32952285 5.70703125 222.34765625 C4.28680664 222.37859375 4.28680664 222.37859375 2.83789062 222.41015625 C-2.5751311 222.44037549 -6.44376813 222.17557397 -11.10546875 219.09765625 C-16.28748013 213.37957473 -15.10546875 209.43180141 -15.10546875 201.09765625 C-31.27546875 201.09765625 -47.44546875 201.09765625 -64.10546875 201.09765625 C-64.10546875 202.74765625 -64.10546875 204.39765625 -64.10546875 206.09765625 C-67.8160665 209.76818275 -72.24631606 209.4879459 -77.16992188 209.5078125 C-78.15927734 209.49621094 -79.14863281 209.48460937 -80.16796875 209.47265625 C-81.16119141 209.48425781 -82.15441406 209.49585938 -83.17773438 209.5078125 C-84.13486328 209.50394531 -85.09199219 209.50007812 -86.078125 209.49609375 C-86.94703369 209.49270996 -87.81594238 209.48932617 -88.71118164 209.48583984 C-91.70712295 209.0001106 -93.03243729 208.32221475 -95.10546875 206.09765625 C-95.60717773 203.41796875 -95.60717773 203.41796875 -95.6015625 200.22265625 C-95.60220703 199.0728125 -95.60285156 197.92296875 -95.60351562 196.73828125 C-95.58353516 195.536875 -95.56355469 194.33546875 -95.54296875 193.09765625 C-95.55005859 191.89625 -95.55714844 190.69484375 -95.56445312 189.45703125 C-95.50077332 180.71820302 -95.50077332 180.71820302 -93.93188477 178.25537109 C-91.37456891 176.63435896 -89.46501944 176.70929701 -86.44921875 176.69921875 C-84.79212891 176.69341797 -84.79212891 176.69341797 -83.1015625 176.6875 C-81.94785156 176.69910156 -80.79414062 176.71070313 -79.60546875 176.72265625 C-77.87490234 176.70525391 -77.87490234 176.70525391 -76.109375 176.6875 C-75.00464844 176.69136719 -73.89992188 176.69523438 -72.76171875 176.69921875 C-71.74916016 176.70260254 -70.73660156 176.70598633 -69.69335938 176.70947266 C-67.10546875 177.09765625 -67.10546875 177.09765625 -65.25195312 178.31005859 C-64.10546875 180.09765625 -64.10546875 180.09765625 -64.10546875 185.09765625 C-47.93546875 185.09765625 -31.76546875 185.09765625 -15.10546875 185.09765625 C-15.10546875 163.31765625 -15.10546875 141.53765625 -15.10546875 119.09765625 C-31.27546875 119.09765625 -47.44546875 119.09765625 -64.10546875 119.09765625 C-64.10546875 120.74765625 -64.10546875 122.39765625 -64.10546875 124.09765625 C-66.20008814 126.33987893 -67.57691847 127.0156505 -70.60742188 127.48583984 C-71.52458984 127.48922363 -72.44175781 127.49260742 -73.38671875 127.49609375 C-74.89685547 127.50189453 -74.89685547 127.50189453 -76.4375 127.5078125 C-77.48292969 127.49621094 -78.52835938 127.48460937 -79.60546875 127.47265625 C-80.65089844 127.48425781 -81.69632813 127.49585938 -82.7734375 127.5078125 C-83.78019531 127.50394531 -84.78695312 127.50007813 -85.82421875 127.49609375 C-86.74138672 127.49270996 -87.65855469 127.48932617 -88.60351562 127.48583984 C-91.66542389 127.01077796 -92.9985079 126.37677417 -95.10546875 124.09765625 C-95.62304688 121.41796875 -95.62304688 121.41796875 -95.63671875 118.22265625 C-95.641875 117.0728125 -95.64703125 115.92296875 -95.65234375 114.73828125 C-95.636875 113.536875 -95.62140625 112.33546875 -95.60546875 111.09765625 C-95.6209375 109.89625 -95.63640625 108.69484375 -95.65234375 107.45703125 C-95.6471875 106.3071875 -95.64203125 105.15734375 -95.63671875 103.97265625 C-95.63220703 102.91820312 -95.62769531 101.86375 -95.62304688 100.77734375 C-95.10546875 98.09765625 -95.10546875 98.09765625 -93.40234375 96.25537109 C-90.68461903 94.88553153 -88.86099381 94.71042259 -85.82421875 94.69921875 C-84.31408203 94.69341797 -84.31408203 94.69341797 -82.7734375 94.6875 C-81.72800781 94.69910156 -80.68257812 94.71070313 -79.60546875 94.72265625 C-78.56003906 94.71105469 -77.51460937 94.69945312 -76.4375 94.6875 C-75.43074219 94.69136719 -74.42398438 94.69523437 -73.38671875 94.69921875 C-72.46955078 94.70260254 -71.55238281 94.70598633 -70.60742188 94.70947266 C-67.57691847 95.179662 -66.20008814 95.85543357 -64.10546875 98.09765625 C-64.10546875 99.74765625 -64.10546875 101.39765625 -64.10546875 103.09765625 C-47.93546875 103.09765625 -31.76546875 103.09765625 -15.10546875 103.09765625 C-15.10546875 81.31765625 -15.10546875 59.53765625 -15.10546875 37.09765625 C-31.27546875 37.09765625 -47.44546875 37.09765625 -64.10546875 37.09765625 C-64.10546875 38.74765625 -64.10546875 40.39765625 -64.10546875 42.09765625 C-65.25195312 43.88525391 -65.25195312 43.88525391 -67.10546875 45.09765625 C-69.69335938 45.48583984 -69.69335938 45.48583984 -72.76171875 45.49609375 C-73.86644531 45.49996094 -74.97117187 45.50382812 -76.109375 45.5078125 C-77.26308594 45.49621094 -78.41679688 45.48460937 -79.60546875 45.47265625 C-80.75917969 45.48425781 -81.91289063 45.49585938 -83.1015625 45.5078125 C-84.20628906 45.50394531 -85.31101562 45.50007813 -86.44921875 45.49609375 C-87.46177734 45.49270996 -88.47433594 45.48932617 -89.51757812 45.48583984 C-92.10546875 45.09765625 -92.10546875 45.09765625 -93.93188477 43.93994141 C-96.59787015 39.7548934 -95.57126844 33.89316797 -95.54296875 29.09765625 C-95.57293945 27.29554688 -95.57293945 27.29554688 -95.60351562 25.45703125 C-95.60287109 24.3071875 -95.60222656 23.15734375 -95.6015625 21.97265625 C-95.60341553 20.91820312 -95.60526855 19.86375 -95.60717773 18.77734375 C-95.10546875 16.09765625 -95.10546875 16.09765625 -93.38867188 14.25537109 C-90.74873811 12.91677337 -89.02901702 12.7107104 -86.078125 12.69921875 C-84.64243164 12.69341797 -84.64243164 12.69341797 -83.17773438 12.6875 C-82.18451172 12.69910156 -81.19128906 12.71070313 -80.16796875 12.72265625 C-78.68393555 12.70525391 -78.68393555 12.70525391 -77.16992188 12.6875 C-67.5134649 12.72646351 -67.5134649 12.72646351 -64.10546875 16.09765625 C-64.10546875 17.74765625 -64.10546875 19.39765625 -64.10546875 21.09765625 C-47.93546875 21.09765625 -31.76546875 21.09765625 -15.10546875 21.09765625 C-15.10546875 17.46765625 -15.10546875 13.83765625 -15.10546875 10.09765625 C-13.58799427 5.84872772 -11.99645194 3.40792752 -8.10546875 1.09765625 C-5.10530963 0.09760321 -3.13123119 -0.0180996 0 0 Z " fill="#746E78" transform="translate(95.10546875,144.90234375)"/>
<path d="M0 0 C0.90685547 -0.020625 1.81371094 -0.04125 2.74804688 -0.0625 C9.49514332 -0.10164197 14.3683565 0.76150527 19.75 5.125 C24.10110694 10.6041717 23.72321487 16.16690423 23.69819641 22.86459351 C23.70393473 24.48680531 23.70393473 24.48680531 23.70978898 26.14178908 C23.72012255 29.77214685 23.71612609 33.40234658 23.7121582 37.03271484 C23.71650448 39.63290046 23.72168735 42.23308479 23.72764587 44.83326721 C23.74039633 51.16697565 23.74218612 57.50064171 23.73984561 63.83436082 C23.73806258 68.98292814 23.73981177 74.13148259 23.74407005 79.28004837 C23.74496284 80.3792067 23.74496284 80.3792067 23.74587366 81.50057025 C23.74708541 82.98920746 23.74829954 84.47784467 23.74951603 85.96648188 C23.76039303 99.92776636 23.7582284 113.8890267 23.75213119 127.85031255 C23.74696258 140.61991919 23.75821568 153.38944954 23.77722941 166.15904109 C23.79660613 179.27303432 23.80486405 192.38699145 23.80110615 205.50099909 C23.79919377 212.86262372 23.80168526 220.22418341 23.81582069 227.58579636 C23.82897859 234.50835968 23.82647668 241.43076777 23.81340981 248.35333061 C23.81103942 250.89501051 23.81379517 253.4367011 23.82203293 255.97836876 C23.83246265 259.44623738 23.82442945 262.91358934 23.8117218 266.38143921 C23.81909609 267.38874002 23.82647037 268.39604083 23.83406812 269.4338659 C23.78175 276.21419065 22.91262193 281.09208581 18.625 286.5625 C13.02800305 290.88018336 6.79586188 290.52759428 0.0625 290.4375 C-0.845 290.43685547 -1.7525 290.43621094 -2.6875 290.43554688 C-8.06317158 290.40069021 -13.2435927 290.02852859 -18.5625 289.25 C-17.985 288.8375 -17.4075 288.425 -16.8125 288 C-13.91437827 285.74590532 -11.22062835 283.5662567 -9.5625 280.25 C-9.40291296 277.6126822 -9.30516744 274.99954561 -9.25048828 272.359375 C-9.22999798 271.51141861 -9.20950768 270.66346222 -9.18839645 269.78981018 C-9.12126107 266.85997885 -9.06365004 263.93006777 -9.0078125 261 C-8.98687656 259.95484222 -8.96594063 258.90968445 -8.94437027 257.83285522 C-8.27220625 223.18929134 -8.41220381 188.53392795 -8.43393064 153.88551807 C-8.43770337 147.17074393 -8.43633505 140.45598455 -8.43212891 133.74121094 C-8.35768342 83.28501927 -8.35768342 83.28501927 -8.83450699 32.8319397 C-8.86621833 30.76769485 -8.8934512 28.70337536 -8.91576767 26.63900757 C-8.94743919 23.90336346 -8.99792286 21.16880511 -9.05517578 18.43359375 C-9.0611742 17.66102234 -9.06717262 16.88845093 -9.07335281 16.09246826 C-9.19472483 11.66883147 -9.78968889 8.74497716 -12.5625 5.25 C-15.62930799 3.42370206 -15.62930799 3.42370206 -18.5625 2.25 C-18.5625 1.92 -18.5625 1.59 -18.5625 1.25 C-12.35042212 0.34906707 -6.27414815 0.03582668 0 0 Z " fill="#5490F9" transform="translate(377.5625,110.75)"/>
<path d="M0 0 C4.41077344 -0.07471341 8.82120184 -0.12886513 13.23242188 -0.16479492 C14.72988307 -0.17978888 16.22730105 -0.20019105 17.72460938 -0.22631836 C30.23593703 -0.43901093 38.2262245 0.49748172 47.7265625 9.45703125 C54.25032242 16.75422663 56.11767471 24.49059012 56.14044189 34.06376648 C56.14341302 34.76335395 56.14638414 35.46294142 56.1494453 36.18372852 C56.1580987 38.52183059 56.1596377 40.85988125 56.16113281 43.19799805 C56.16576341 44.87707121 56.1707884 46.55614333 56.17617798 48.23521423 C56.18928173 52.79329507 56.19574312 57.35136119 56.20018864 61.90945792 C56.20312297 64.75974267 56.20722848 67.61002343 56.21169281 70.46030617 C56.22536314 79.38558327 56.23503176 88.31085121 56.2388947 97.23613805 C56.24337279 107.525108 56.26091106 117.81394494 56.2898953 128.10287446 C56.31154266 136.06485186 56.32160063 144.02679193 56.32293582 151.98879844 C56.32398177 156.73986003 56.3298446 161.4907965 56.34775543 166.24182701 C56.36428874 170.71439818 56.36636619 175.18675088 56.35761642 179.65934181 C56.35684883 181.2951224 56.36115196 182.93091498 56.37107468 184.56666565 C56.44924144 198.26255845 55.17097673 208.54131282 45.3359375 218.72265625 C36.50353852 226.9299311 26.82766848 226.38516235 15.5 226.1875 C13.99480503 226.1724286 12.48959549 226.15874453 10.984375 226.14648438 C7.32261059 226.11366687 3.66139979 226.06201989 0 226 C1.93705339 225.02017634 3.84696718 224.06204902 5.859375 223.24609375 C12.30416482 220.48974769 17.79304577 215.69446265 20.81466347 209.26711076 C22.70901781 204.48522722 23.37801715 200.46778636 23.38768005 195.26502991 C23.39306559 194.52950518 23.39845113 193.79398044 23.40399987 193.03616709 C23.41820153 190.59433043 23.41119535 188.15304188 23.40405273 185.71118164 C23.40976038 183.95122343 23.41672617 182.19126891 23.42485046 180.43132019 C23.44275305 175.66682512 23.44161898 170.90251452 23.43590808 166.13799596 C23.43281213 162.15444827 23.43891318 158.1709358 23.44494683 154.18739313 C23.45898083 144.78708955 23.45744003 135.38687688 23.44604492 125.98657227 C23.43456371 116.30144515 23.44864202 106.61659494 23.4754414 96.93150431 C23.49761963 88.60343832 23.50423102 80.27545912 23.49836498 71.9473657 C23.49499943 66.97894783 23.49738388 62.01070746 23.51461601 57.04231453 C23.530117 52.36936188 23.52609467 47.69681857 23.50731087 43.02388191 C23.50363376 41.31350786 23.50670775 39.60310326 23.51719666 37.89275742 C23.58573933 25.78761018 22.42558313 16.90861465 13.93359375 7.72265625 C10.93209106 5.04859021 7.6788799 3.53223451 4 2 C2.66418202 1.33832596 1.33052486 0.67225429 0 0 Z " fill="#DBE9FB" transform="translate(314,143)"/>
<path d="M0 0 C4.52544777 1.54569374 6.56933465 5.86375928 9.05859375 9.703125 C10.09156562 11.23975192 11.12692625 12.77477447 12.1640625 14.30859375 C15.15917153 18.75371588 18.11810404 23.22172301 21.05859375 27.703125 C21.07317627 26.9918042 21.08775879 26.2804834 21.1027832 25.54760742 C21.17720381 22.32806168 21.27388375 19.10955982 21.37109375 15.890625 C21.39365234 14.77107422 21.41621094 13.65152344 21.43945312 12.49804688 C21.47490234 11.42490234 21.51035156 10.35175781 21.546875 9.24609375 C21.57305908 8.25633545 21.59924316 7.26657715 21.6262207 6.24682617 C22.11814778 3.3527617 22.72881823 2.4308599 25.05859375 0.703125 C26.99609375 0.3046875 26.99609375 0.3046875 29.05859375 0.328125 C30.07953125 0.31652344 30.07953125 0.31652344 31.12109375 0.3046875 C33.68646226 0.83224312 34.45542768 1.64288278 36.05859375 3.703125 C36.43954468 6.09375 36.43954468 6.09375 36.44677734 8.953125 C36.45623383 10.02433594 36.46569031 11.09554687 36.47543335 12.19921875 C36.46936066 13.35550781 36.46328796 14.51179687 36.45703125 15.703125 C36.45990143 16.89035156 36.46277161 18.07757813 36.46572876 19.30078125 C36.46777152 21.81250485 36.46222697 24.32424428 36.44970703 26.8359375 C36.43365735 30.68786072 36.44954963 34.53873455 36.46875 38.390625 C36.46676761 40.82812732 36.46292402 43.26562899 36.45703125 45.703125 C36.46614029 47.43755859 36.46614029 47.43755859 36.47543335 49.20703125 C36.46597687 50.27824219 36.45652039 51.34945312 36.44677734 52.453125 C36.44439056 53.39671875 36.44200378 54.3403125 36.43954468 55.3125 C36.05859375 57.703125 36.05859375 57.703125 34.76870728 59.484375 C32.35415853 61.20515624 30.07587799 61.49482523 27.15234375 61.3359375 C22.57178393 59.95151457 20.53598503 55.52418613 18.05859375 51.703125 C17.02562188 50.16649808 15.99026125 48.63147553 14.953125 47.09765625 C11.95801597 42.65253412 8.99908346 38.18452699 6.05859375 33.703125 C6.04401123 34.37891602 6.02942871 35.05470703 6.0144043 35.75097656 C5.93983964 38.81893022 5.8432072 41.88580576 5.74609375 44.953125 C5.71225586 46.54833984 5.71225586 46.54833984 5.67773438 48.17578125 C5.64228516 49.20058594 5.60683594 50.22539062 5.5703125 51.28125 C5.54412842 52.22387695 5.51794434 53.16650391 5.4909668 54.13769531 C4.98248355 57.15471507 4.22757474 58.55669573 2.05859375 60.703125 C-3.41228004 61.4846784 -3.41228004 61.4846784 -5.94140625 60.703125 C-8.45143406 58.50213175 -9.78392073 56.6850849 -10.31846619 53.35206604 C-10.47166794 50.37884742 -10.49556601 47.4302536 -10.47265625 44.453125 C-10.47648315 43.36225586 -10.48031006 42.27138672 -10.48425293 41.14746094 C-10.48697114 38.84439164 -10.4796164 36.54129142 -10.46289062 34.23828125 C-10.44148112 30.71544488 -10.46269686 27.19464802 -10.48828125 23.671875 C-10.48563796 21.43228717 -10.48051296 19.19270061 -10.47265625 16.953125 C-10.48075317 15.90092773 -10.4888501 14.84873047 -10.49719238 13.76464844 C-10.44012635 9.30875776 -10.38275911 6.47729346 -8.14648438 2.5546875 C-5.51631346 0.3461826 -3.44796031 -0.27836744 0 0 Z " fill="#76707A" transform="translate(191.94140625,225.296875)"/>
<path d="M0 0 C1.07894531 -0.00515625 2.15789062 -0.0103125 3.26953125 -0.015625 C4.39230469 -0.00015625 5.51507813 0.0153125 6.671875 0.03125 C7.77917969 0.01578125 8.88648438 0.0003125 10.02734375 -0.015625 C17.83487376 0.02150951 23.83552835 0.92448771 29.48046875 6.6015625 C30.16302734 7.61863281 30.16302734 7.61863281 30.859375 8.65625 C31.33246094 9.33945313 31.80554688 10.02265625 32.29296875 10.7265625 C35.5325998 15.90548826 34.91646234 21.58226985 34.421875 27.53125 C32.78311491 33.43078633 29.49780411 37.11475925 24.421875 40.53125 C18.25452367 43.89279534 12.31902302 43.87357168 5.421875 43.53125 C5.46828125 44.33949219 5.5146875 45.14773438 5.5625 45.98046875 C5.85467785 54.63102007 5.85467785 54.63102007 3.859375 58.78125 C0.48103058 61.20672804 -1.510438 61.18498541 -5.578125 60.53125 C-8.14173288 58.52341731 -9.41194621 57.32568124 -10.08605957 54.10302734 C-10.08924194 53.2002002 -10.09242432 52.29737305 -10.09570312 51.3671875 C-10.10831177 50.33932129 -10.12092041 49.31145508 -10.13391113 48.25244141 C-10.12581421 47.14819824 -10.11771729 46.04395508 -10.109375 44.90625 C-10.1132019 43.76720215 -10.11702881 42.6281543 -10.12097168 41.45458984 C-10.12369274 39.04719153 -10.1163181 36.63976374 -10.09960938 34.23242188 C-10.07820425 30.54490318 -10.09940632 26.85933301 -10.125 23.171875 C-10.12235676 20.83332903 -10.11723187 18.49478427 -10.109375 16.15625 C-10.11747192 15.05200684 -10.12556885 13.94776367 -10.13391113 12.81005859 C-10.12130249 11.78219238 -10.10869385 10.75432617 -10.09570312 9.6953125 C-10.09252075 8.79248535 -10.08933838 7.8896582 -10.08605957 6.95947266 C-8.9249321 1.40860807 -5.21114735 0.02410177 0 0 Z " fill="#766F79" transform="translate(294.578125,225.46875)"/>
<path d="M0 0 C5.28 0 10.56 0 16 0 C16 16.5 16 33 16 50 C17.65 50 19.3 50 21 50 C23.24222268 52.09461939 23.91799425 53.47144972 24.38818359 56.50195312 C24.39156738 57.41912109 24.39495117 58.33628906 24.3984375 59.28125 C24.40423828 60.79138672 24.40423828 60.79138672 24.41015625 62.33203125 C24.39855469 63.37746094 24.38695312 64.42289062 24.375 65.5 C24.38660156 66.54542969 24.39820313 67.59085937 24.41015625 68.66796875 C24.40628906 69.67472656 24.40242188 70.68148437 24.3984375 71.71875 C24.39505371 72.63591797 24.39166992 73.55308594 24.38818359 74.49804688 C23.91314493 77.5598055 23.28049299 78.89448786 21 81 C18.3203125 81.50170898 18.3203125 81.50170898 15.125 81.49609375 C13.97515625 81.49673828 12.8253125 81.49738281 11.640625 81.49804688 C9.83851563 81.46807617 9.83851563 81.46807617 8 81.4375 C6.19789063 81.44813477 6.19789063 81.44813477 4.359375 81.45898438 C-4.37945323 81.39530457 -4.37945323 81.39530457 -6.84228516 79.82641602 C-8.46329729 77.26910016 -8.38835924 75.35955069 -8.3984375 72.34375 C-8.40230469 71.23902344 -8.40617187 70.13429688 -8.41015625 68.99609375 C-8.39855469 67.84238281 -8.38695312 66.68867188 -8.375 65.5 C-8.38660156 64.34628906 -8.39820313 63.19257813 -8.41015625 62.00390625 C-8.40628906 60.89917969 -8.40242188 59.79445313 -8.3984375 58.65625 C-8.39505371 57.64369141 -8.39166992 56.63113281 -8.38818359 55.58789062 C-8 53 -8 53 -6.78759766 51.14648438 C-5 50 -5 50 0 50 C0 33.5 0 17 0 0 Z " fill="#FFE07C" transform="translate(330,431)"/>
<path d="M0 0 C5.28 0 10.56 0 16 0 C16 16.5 16 33 16 50 C17.65 50 19.3 50 21 50 C22.78759766 51.14648438 22.78759766 51.14648438 24 53 C24.38818359 55.58789062 24.38818359 55.58789062 24.3984375 58.65625 C24.40423828 60.31333984 24.40423828 60.31333984 24.41015625 62.00390625 C24.39855469 63.15761719 24.38695312 64.31132812 24.375 65.5 C24.38660156 66.65371094 24.39820313 67.80742187 24.41015625 68.99609375 C24.40628906 70.10082031 24.40242188 71.20554687 24.3984375 72.34375 C24.39505371 73.35630859 24.39166992 74.36886719 24.38818359 75.41210938 C24 78 24 78 22.84228516 79.82641602 C18.65723715 82.4924014 12.79551172 81.46579969 8 81.4375 C6.79859375 81.45748047 5.5971875 81.47746094 4.359375 81.49804688 C3.20953125 81.49740234 2.0596875 81.49675781 0.875 81.49609375 C-0.17945313 81.49794678 -1.23390625 81.4997998 -2.3203125 81.50170898 C-5 81 -5 81 -6.84228516 79.29907227 C-8.21137252 76.58024146 -8.38723128 74.75616922 -8.3984375 71.71875 C-8.40230469 70.71199219 -8.40617188 69.70523438 -8.41015625 68.66796875 C-8.39855469 67.62253906 -8.38695312 66.57710938 -8.375 65.5 C-8.38660156 64.45457031 -8.39820313 63.40914063 -8.41015625 62.33203125 C-8.40628906 61.32527344 -8.40242187 60.31851563 -8.3984375 59.28125 C-8.39505371 58.36408203 -8.39166992 57.44691406 -8.38818359 56.50195312 C-7.91799425 53.47144972 -7.24222268 52.09461939 -5 50 C-3.35 50 -1.7 50 0 50 C0 33.5 0 17 0 0 Z " fill="#FFE07C" transform="translate(166,431)"/>
<path d="M0 0 C1.51013672 -0.00580078 1.51013672 -0.00580078 3.05078125 -0.01171875 C4.61892578 0.00568359 4.61892578 0.00568359 6.21875 0.0234375 C7.26417969 0.01183594 8.30960937 0.00023437 9.38671875 -0.01171875 C10.39347656 -0.00785156 11.40023437 -0.00398437 12.4375 0 C13.35466797 0.00338379 14.27183594 0.00676758 15.21679688 0.01025391 C18.2785555 0.48529257 19.61323786 1.11794451 21.71875 3.3984375 C22.22045898 6.078125 22.22045898 6.078125 22.21484375 9.2734375 C22.21548828 10.42328125 22.21613281 11.573125 22.21679688 12.7578125 C22.19681641 13.95921875 22.17683594 15.160625 22.15625 16.3984375 C22.16333984 17.59984375 22.17042969 18.80125 22.17773438 20.0390625 C22.11405457 28.77789073 22.11405457 28.77789073 20.54516602 31.24072266 C17.98785016 32.86173479 16.07830069 32.78679674 13.0625 32.796875 C11.95777344 32.80074219 10.85304688 32.80460937 9.71484375 32.80859375 C8.56113281 32.79699219 7.40742188 32.78539062 6.21875 32.7734375 C5.06503906 32.78503906 3.91132813 32.79664063 2.72265625 32.80859375 C1.61792969 32.80472656 0.51320313 32.80085938 -0.625 32.796875 C-1.63755859 32.79349121 -2.65011719 32.79010742 -3.69335938 32.78662109 C-6.28125 32.3984375 -6.28125 32.3984375 -8.13476562 31.18603516 C-9.28125 29.3984375 -9.28125 29.3984375 -9.28125 24.3984375 C-25.78125 24.3984375 -42.28125 24.3984375 -59.28125 24.3984375 C-59.28125 19.1184375 -59.28125 13.8384375 -59.28125 8.3984375 C-42.78125 8.3984375 -26.28125 8.3984375 -9.28125 8.3984375 C-9.28125 6.7484375 -9.28125 5.0984375 -9.28125 3.3984375 C-6.44312173 0.36031247 -4.05069722 0.0149446 0 0 Z " fill="#FFE07C" transform="translate(490.28125,157.6015625)"/>
<path d="M0 0 C1.20140625 -0.01998047 2.4028125 -0.03996094 3.640625 -0.06054688 C4.79046875 -0.05990234 5.9403125 -0.05925781 7.125 -0.05859375 C8.17945313 -0.06044678 9.23390625 -0.0622998 10.3203125 -0.06420898 C13 0.4375 13 0.4375 14.84228516 2.13842773 C16.21137252 4.85725854 16.38723128 6.68133078 16.3984375 9.71875 C16.40423828 11.22888672 16.40423828 11.22888672 16.41015625 12.76953125 C16.39855469 13.81496094 16.38695312 14.86039063 16.375 15.9375 C16.38660156 16.98292969 16.39820313 18.02835938 16.41015625 19.10546875 C16.40628906 20.11222656 16.40242188 21.11898438 16.3984375 22.15625 C16.39505371 23.07341797 16.39166992 23.99058594 16.38818359 24.93554688 C15.91799425 27.96605028 15.24222268 29.34288061 13 31.4375 C11.35 31.4375 9.7 31.4375 8 31.4375 C8 47.9375 8 64.4375 8 81.4375 C2.72 81.4375 -2.56 81.4375 -8 81.4375 C-8 64.9375 -8 48.4375 -8 31.4375 C-9.65 31.4375 -11.3 31.4375 -13 31.4375 C-14.78759766 30.29101562 -14.78759766 30.29101562 -16 28.4375 C-16.38818359 25.84960938 -16.38818359 25.84960938 -16.3984375 22.78125 C-16.40230469 21.67652344 -16.40617187 20.57179688 -16.41015625 19.43359375 C-16.39855469 18.27988281 -16.38695312 17.12617188 -16.375 15.9375 C-16.38660156 14.78378906 -16.39820313 13.63007813 -16.41015625 12.44140625 C-16.40628906 11.33667969 -16.40242188 10.23195313 -16.3984375 9.09375 C-16.39505371 8.08119141 -16.39166992 7.06863281 -16.38818359 6.02539062 C-16 3.4375 -16 3.4375 -14.84228516 1.61108398 C-10.65723715 -1.0549014 -4.79551172 -0.02829969 0 0 Z " fill="#FFE07C" transform="translate(338,-0.4375)"/>
<path d="M0 0 C1.10472656 -0.00386719 2.20945312 -0.00773437 3.34765625 -0.01171875 C4.50136719 -0.00011719 5.65507812 0.01148438 6.84375 0.0234375 C8.57431641 0.00603516 8.57431641 0.00603516 10.33984375 -0.01171875 C11.44457031 -0.00785156 12.54929687 -0.00398438 13.6875 0 C14.70005859 0.00338379 15.71261719 0.00676758 16.75585938 0.01025391 C19.34375 0.3984375 19.34375 0.3984375 21.17016602 1.55615234 C23.8361514 5.74120035 22.80954969 11.60292578 22.78125 16.3984375 C22.80123047 17.59984375 22.82121094 18.80125 22.84179688 20.0390625 C22.84083008 21.76382812 22.84083008 21.76382812 22.83984375 23.5234375 C22.84169678 24.57789063 22.8435498 25.63234375 22.84545898 26.71875 C22.34375 29.3984375 22.34375 29.3984375 20.62695312 31.24072266 C17.98701936 32.57932038 16.26729827 32.78538335 13.31640625 32.796875 C11.88071289 32.80267578 11.88071289 32.80267578 10.41601562 32.80859375 C9.42279297 32.79699219 8.42957031 32.78539062 7.40625 32.7734375 C6.41689453 32.78503906 5.42753906 32.79664063 4.40820312 32.80859375 C-5.24825385 32.76963024 -5.24825385 32.76963024 -8.65625 29.3984375 C-8.65625 27.7484375 -8.65625 26.0984375 -8.65625 24.3984375 C-25.15625 24.3984375 -41.65625 24.3984375 -58.65625 24.3984375 C-58.65625 19.1184375 -58.65625 13.8384375 -58.65625 8.3984375 C-42.15625 8.3984375 -25.65625 8.3984375 -8.65625 8.3984375 C-8.65625 6.7484375 -8.65625 5.0984375 -8.65625 3.3984375 C-6.41174389 -0.10119489 -3.94987251 0.01319976 0 0 Z " fill="#FFE07C" transform="translate(489.65625,321.6015625)"/>
<path d="M0 0 C1.10472656 -0.00386719 2.20945312 -0.00773437 3.34765625 -0.01171875 C4.50136719 -0.00011719 5.65507812 0.01148438 6.84375 0.0234375 C8.57431641 0.00603516 8.57431641 0.00603516 10.33984375 -0.01171875 C11.44457031 -0.00785156 12.54929687 -0.00398438 13.6875 0 C14.70005859 0.00338379 15.71261719 0.00676758 16.75585938 0.01025391 C19.34375 0.3984375 19.34375 0.3984375 21.19726562 1.61083984 C22.34375 3.3984375 22.34375 3.3984375 22.34375 8.3984375 C38.84375 8.3984375 55.34375 8.3984375 72.34375 8.3984375 C72.34375 13.6784375 72.34375 18.9584375 72.34375 24.3984375 C55.84375 24.3984375 39.34375 24.3984375 22.34375 24.3984375 C22.34375 26.0484375 22.34375 27.6984375 22.34375 29.3984375 C18.63315225 33.068964 14.20290269 32.78872715 9.27929688 32.80859375 C8.28994141 32.79699219 7.30058594 32.78539062 6.28125 32.7734375 C5.28802734 32.78503906 4.29480469 32.79664063 3.27148438 32.80859375 C2.31435547 32.80472656 1.35722656 32.80085938 0.37109375 32.796875 C-0.49781494 32.79349121 -1.36672363 32.79010742 -2.26196289 32.78662109 C-5.2579042 32.30089185 -6.58321854 31.622996 -8.65625 29.3984375 C-9.15795898 26.71875 -9.15795898 26.71875 -9.15234375 23.5234375 C-9.15298828 22.37359375 -9.15363281 21.22375 -9.15429688 20.0390625 C-9.13431641 18.83765625 -9.11433594 17.63625 -9.09375 16.3984375 C-9.10083984 15.19703125 -9.10792969 13.995625 -9.11523438 12.7578125 C-9.05155457 4.01898427 -9.05155457 4.01898427 -7.48266602 1.55615234 C-4.92535016 -0.06485979 -3.01580069 0.01007826 0 0 Z " fill="#FFE07C" transform="translate(8.65625,321.6015625)"/>
<path d="M0 0 C1.43569336 -0.00580078 1.43569336 -0.00580078 2.90039062 -0.01171875 C3.89361328 -0.00011719 4.88683594 0.01148438 5.91015625 0.0234375 C7.39418945 0.00603516 7.39418945 0.00603516 8.90820312 -0.01171875 C18.5646601 0.02724476 18.5646601 0.02724476 21.97265625 3.3984375 C21.97265625 5.0484375 21.97265625 6.6984375 21.97265625 8.3984375 C38.47265625 8.3984375 54.97265625 8.3984375 71.97265625 8.3984375 C71.97265625 13.6784375 71.97265625 18.9584375 71.97265625 24.3984375 C55.47265625 24.3984375 38.97265625 24.3984375 21.97265625 24.3984375 C21.97265625 26.0484375 21.97265625 27.6984375 21.97265625 29.3984375 C20.82617188 31.18603516 20.82617188 31.18603516 18.97265625 32.3984375 C16.38476562 32.78662109 16.38476562 32.78662109 13.31640625 32.796875 C12.21167969 32.80074219 11.10695313 32.80460937 9.96875 32.80859375 C8.81503906 32.79699219 7.66132813 32.78539062 6.47265625 32.7734375 C5.31894531 32.78503906 4.16523438 32.79664063 2.9765625 32.80859375 C1.87183594 32.80472656 0.76710938 32.80085938 -0.37109375 32.796875 C-1.38365234 32.79349121 -2.39621094 32.79010742 -3.43945312 32.78662109 C-6.02734375 32.3984375 -6.02734375 32.3984375 -7.85375977 31.24072266 C-10.51974515 27.05567465 -9.49314344 21.19394922 -9.46484375 16.3984375 C-9.49481445 14.59632813 -9.49481445 14.59632813 -9.52539062 12.7578125 C-9.52474609 11.60796875 -9.52410156 10.458125 -9.5234375 9.2734375 C-9.52529053 8.21898437 -9.52714355 7.16453125 -9.52905273 6.078125 C-9.02734375 3.3984375 -9.02734375 3.3984375 -7.31054688 1.55615234 C-4.67061311 0.21755462 -2.95089202 0.01149165 0 0 Z " fill="#FFE07C" transform="translate(9.02734375,157.6015625)"/>
<path d="M0 0 C1.14984375 -0.00064453 2.2996875 -0.00128906 3.484375 -0.00195312 C4.68578125 0.01802734 5.8871875 0.03800781 7.125 0.05859375 C8.32640625 0.05150391 9.5278125 0.04441406 10.765625 0.03710938 C19.50445323 0.10078918 19.50445323 0.10078918 21.96728516 1.66967773 C23.58829729 4.22699359 23.51335924 6.13654306 23.5234375 9.15234375 C23.52923828 10.80943359 23.52923828 10.80943359 23.53515625 12.5 C23.52355469 13.65371094 23.51195312 14.80742187 23.5 15.99609375 C23.51160156 17.14980469 23.52320313 18.30351562 23.53515625 19.4921875 C23.53128906 20.59691406 23.52742188 21.70164062 23.5234375 22.83984375 C23.52005371 23.85240234 23.51666992 24.86496094 23.51318359 25.90820312 C23.125 28.49609375 23.125 28.49609375 21.91259766 30.34960938 C20.125 31.49609375 20.125 31.49609375 15.125 31.49609375 C15.125 47.99609375 15.125 64.49609375 15.125 81.49609375 C9.845 81.49609375 4.565 81.49609375 -0.875 81.49609375 C-0.875 64.99609375 -0.875 48.49609375 -0.875 31.49609375 C-2.525 31.49609375 -4.175 31.49609375 -5.875 31.49609375 C-9.5455265 27.785496 -9.26528965 23.35524644 -9.28515625 18.43164062 C-9.27355469 17.44228516 -9.26195312 16.45292969 -9.25 15.43359375 C-9.26160156 14.44037109 -9.27320313 13.44714844 -9.28515625 12.42382812 C-9.28128906 11.46669922 -9.27742187 10.50957031 -9.2734375 9.5234375 C-9.27005371 8.65452881 -9.26666992 7.78562012 -9.26318359 6.89038086 C-8.3169405 1.05402489 -5.5706755 -0.00978954 0 0 Z " fill="#FFE07C" transform="translate(166.875,-0.49609375)"/>
<path d="M0 0 C1.20140625 -0.01998047 2.4028125 -0.03996094 3.640625 -0.06054688 C4.79046875 -0.05990234 5.9403125 -0.05925781 7.125 -0.05859375 C8.17945313 -0.06044678 9.23390625 -0.0622998 10.3203125 -0.06420898 C13 0.4375 13 0.4375 14.84228516 2.13842773 C16.21137252 4.85725854 16.38723128 6.68133078 16.3984375 9.71875 C16.40423828 11.22888672 16.40423828 11.22888672 16.41015625 12.76953125 C16.39855469 13.81496094 16.38695312 14.86039063 16.375 15.9375 C16.38660156 16.98292969 16.39820313 18.02835938 16.41015625 19.10546875 C16.40628906 20.11222656 16.40242188 21.11898438 16.3984375 22.15625 C16.39505371 23.07341797 16.39166992 23.99058594 16.38818359 24.93554688 C15.91799425 27.96605028 15.24222268 29.34288061 13 31.4375 C11.35 31.4375 9.7 31.4375 8 31.4375 C8 47.9375 8 64.4375 8 81.4375 C2.72 81.4375 -2.56 81.4375 -8 81.4375 C-8 64.9375 -8 48.4375 -8 31.4375 C-9.65 31.4375 -11.3 31.4375 -13 31.4375 C-15.2983439 29.31085701 -15.92771182 27.92346754 -16.38818359 24.82788086 C-16.39156738 23.86245361 -16.39495117 22.89702637 -16.3984375 21.90234375 C-16.40230469 20.84595703 -16.40617188 19.78957031 -16.41015625 18.70117188 C-16.39855469 17.60353516 -16.38695312 16.50589844 -16.375 15.375 C-16.38660156 14.27349609 -16.39820313 13.17199219 -16.41015625 12.03710938 C-16.40628906 10.98201172 -16.40242187 9.92691406 -16.3984375 8.83984375 C-16.39505371 7.87554443 -16.39166992 6.91124512 -16.38818359 5.91772461 C-16 3.4375 -16 3.4375 -14.84228516 1.62695312 C-10.67259246 -1.06516758 -4.7938483 -0.02828988 0 0 Z " fill="#FFE07C" transform="translate(256,-0.4375)"/>
<path d="M0 0 C5.28 0 10.56 0 16 0 C16 16.5 16 33 16 50 C17.65 50 19.3 50 21 50 C23.24222268 52.09461939 23.91799425 53.47144972 24.38818359 56.50195312 C24.39156738 57.41912109 24.39495117 58.33628906 24.3984375 59.28125 C24.40423828 60.79138672 24.40423828 60.79138672 24.41015625 62.33203125 C24.39855469 63.37746094 24.38695312 64.42289062 24.375 65.5 C24.38660156 66.54542969 24.39820313 67.59085937 24.41015625 68.66796875 C24.40628906 69.67472656 24.40242188 70.68148437 24.3984375 71.71875 C24.39505371 72.63591797 24.39166992 73.55308594 24.38818359 74.49804688 C23.91312171 77.55995514 23.27911792 78.89303915 21 81 C18.3203125 81.51757812 18.3203125 81.51757812 15.125 81.53125 C13.40023438 81.53898438 13.40023438 81.53898438 11.640625 81.546875 C10.43921875 81.53140625 9.2378125 81.5159375 8 81.5 C6.79859375 81.51546875 5.5971875 81.5309375 4.359375 81.546875 C2.63460937 81.53914062 2.63460937 81.53914062 0.875 81.53125 C-0.70667969 81.52448242 -0.70667969 81.52448242 -2.3203125 81.51757812 C-5 81 -5 81 -6.84228516 79.296875 C-8.21212472 76.57915028 -8.38723366 74.75552506 -8.3984375 71.71875 C-8.40230469 70.71199219 -8.40617188 69.70523438 -8.41015625 68.66796875 C-8.39855469 67.62253906 -8.38695312 66.57710938 -8.375 65.5 C-8.38660156 64.45457031 -8.39820313 63.40914063 -8.41015625 62.33203125 C-8.40628906 61.32527344 -8.40242187 60.31851563 -8.3984375 59.28125 C-8.39505371 58.36408203 -8.39166992 57.44691406 -8.38818359 56.50195312 C-7.91799425 53.47144972 -7.24222268 52.09461939 -5 50 C-3.35 50 -1.7 50 0 50 C0 33.5 0 17 0 0 Z " fill="#FFDF7C" transform="translate(248,431)"/>
<path d="M0 0 C1.51013672 -0.00580078 1.51013672 -0.00580078 3.05078125 -0.01171875 C4.61892578 0.00568359 4.61892578 0.00568359 6.21875 0.0234375 C7.26417969 0.01183594 8.30960937 0.00023437 9.38671875 -0.01171875 C10.39347656 -0.00785156 11.40023437 -0.00398437 12.4375 0 C13.35466797 0.00338379 14.27183594 0.00676758 15.21679688 0.01025391 C18.27870514 0.48531579 19.61178915 1.11931958 21.71875 3.3984375 C22.23632812 6.078125 22.23632812 6.078125 22.25 9.2734375 C22.25773438 10.99820313 22.25773438 10.99820313 22.265625 12.7578125 C22.25015625 13.95921875 22.2346875 15.160625 22.21875 16.3984375 C22.24195313 18.20054687 22.24195313 18.20054687 22.265625 20.0390625 C22.26046875 21.18890625 22.2553125 22.33875 22.25 23.5234375 C22.24548828 24.57789063 22.24097656 25.63234375 22.23632812 26.71875 C21.71875 29.3984375 21.71875 29.3984375 20.015625 31.24072266 C17.29790028 32.61056222 15.47427506 32.78567116 12.4375 32.796875 C10.92736328 32.80267578 10.92736328 32.80267578 9.38671875 32.80859375 C8.34128906 32.79699219 7.29585938 32.78539062 6.21875 32.7734375 C5.17332031 32.78503906 4.12789063 32.79664063 3.05078125 32.80859375 C2.04402344 32.80472656 1.03726563 32.80085938 0 32.796875 C-0.91716797 32.79349121 -1.83433594 32.79010742 -2.77929688 32.78662109 C-5.80980028 32.31643175 -7.18663061 31.64066018 -9.28125 29.3984375 C-9.28125 27.7484375 -9.28125 26.0984375 -9.28125 24.3984375 C-25.78125 24.3984375 -42.28125 24.3984375 -59.28125 24.3984375 C-59.28125 19.1184375 -59.28125 13.8384375 -59.28125 8.3984375 C-42.78125 8.3984375 -26.28125 8.3984375 -9.28125 8.3984375 C-9.28125 6.7484375 -9.28125 5.0984375 -9.28125 3.3984375 C-6.44312173 0.36031247 -4.05069722 0.0149446 0 0 Z " fill="#FFE07C" transform="translate(490.28125,239.6015625)"/>
<path d="M0 0 C1.51013672 -0.00580078 1.51013672 -0.00580078 3.05078125 -0.01171875 C4.61892578 0.00568359 4.61892578 0.00568359 6.21875 0.0234375 C7.26417969 0.01183594 8.30960938 0.00023437 9.38671875 -0.01171875 C10.39347656 -0.00785156 11.40023438 -0.00398437 12.4375 0 C13.35466797 0.00338379 14.27183594 0.00676758 15.21679688 0.01025391 C18.24730028 0.48044325 19.62413061 1.15621482 21.71875 3.3984375 C21.71875 5.0484375 21.71875 6.6984375 21.71875 8.3984375 C38.21875 8.3984375 54.71875 8.3984375 71.71875 8.3984375 C71.71875 13.6784375 71.71875 18.9584375 71.71875 24.3984375 C55.21875 24.3984375 38.71875 24.3984375 21.71875 24.3984375 C21.71875 26.0484375 21.71875 27.6984375 21.71875 29.3984375 C19.62413061 31.64066018 18.24730028 32.31643175 15.21679688 32.78662109 C14.29962891 32.79000488 13.38246094 32.79338867 12.4375 32.796875 C10.92736328 32.80267578 10.92736328 32.80267578 9.38671875 32.80859375 C8.34128906 32.79699219 7.29585937 32.78539062 6.21875 32.7734375 C5.17332031 32.78503906 4.12789062 32.79664063 3.05078125 32.80859375 C2.04402344 32.80472656 1.03726562 32.80085938 0 32.796875 C-0.91716797 32.79349121 -1.83433594 32.79010742 -2.77929688 32.78662109 C-5.84120514 32.31155921 -7.17428915 31.67755542 -9.28125 29.3984375 C-9.79882812 26.71875 -9.79882812 26.71875 -9.8125 23.5234375 C-9.81765625 22.37359375 -9.8228125 21.22375 -9.828125 20.0390625 C-9.81265625 18.83765625 -9.7971875 17.63625 -9.78125 16.3984375 C-9.79671875 15.19703125 -9.8121875 13.995625 -9.828125 12.7578125 C-9.82296875 11.60796875 -9.8178125 10.458125 -9.8125 9.2734375 C-9.80798828 8.21898437 -9.80347656 7.16453125 -9.79882812 6.078125 C-9.28125 3.3984375 -9.28125 3.3984375 -7.578125 1.55615234 C-4.86040028 0.18631278 -3.03677506 0.01120384 0 0 Z " fill="#FFE07C" transform="translate(9.28125,239.6015625)"/>
<path d="M0 0 C3.5 0.5625 3.5 0.5625 5.69433594 1.99902344 C8.43972239 5.89661102 7.9975933 9.48755603 7.890625 14.140625 C7.88496521 15.0671991 7.87930542 15.99377319 7.87347412 16.94842529 C7.85110921 19.90364562 7.80091262 22.85764705 7.75 25.8125 C7.72993515 27.8176908 7.71168435 29.82290064 7.6953125 31.828125 C7.651244 36.74005194 7.58221555 41.65106942 7.5 46.5625 C8.31984375 46.51609375 9.1396875 46.4696875 9.984375 46.421875 C11.60085938 46.36773437 11.60085938 46.36773437 13.25 46.3125 C14.31734375 46.26609375 15.3846875 46.2196875 16.484375 46.171875 C19.5 46.5625 19.5 46.5625 21.85546875 48.39453125 C23.5 50.5625 23.5 50.5625 24.0625 53.5 C23.28318841 57.74291866 21.93144086 58.95963715 18.5 61.5625 C15.14834009 62.26949946 11.91311852 62.21651115 8.5 62.125 C7.61054688 62.13595703 6.72109375 62.14691406 5.8046875 62.15820312 C1.53892081 62.11045201 -0.87946671 61.94954181 -4.5625 59.65234375 C-7.40291871 56.58858567 -7.63079158 54.90288079 -7.67700195 50.82495117 C-7.69625481 49.34782906 -7.69625481 49.34782906 -7.71589661 47.84086609 C-7.72328354 46.77318497 -7.73067047 45.70550385 -7.73828125 44.60546875 C-7.746353 43.51035477 -7.75442474 42.41524078 -7.76274109 41.28694153 C-7.77658904 38.9659687 -7.787308 36.64497545 -7.79516602 34.32397461 C-7.81237955 30.77483517 -7.8562606 27.22662684 -7.90039062 23.67773438 C-7.91051725 21.42448603 -7.91903344 19.17122975 -7.92578125 16.91796875 C-7.94328934 15.85636032 -7.96079742 14.79475189 -7.97883606 13.70097351 C-7.96557032 9.19283782 -7.95386685 6.35947916 -5.69213867 2.38793945 C-3.5 0.5625 -3.5 0.5625 0 0 Z " fill="#78717B" transform="translate(248.5,225.4375)"/>
<path d="M0 0 C5.29085579 -0.14676438 9.07093321 0.02504387 13.56640625 3.171875 C16.93943974 6.89384299 17.69396179 10.12521065 17.6640625 15.05859375 C17.66156494 15.90381592 17.65906738 16.74903809 17.65649414 17.61987305 C17.64739014 18.68890869 17.63828613 19.75794434 17.62890625 20.859375 C17.60828125 24.2625 17.58765625 27.665625 17.56640625 31.171875 C7.00640625 31.171875 -3.55359375 31.171875 -14.43359375 31.171875 C-14.68359375 19.984375 -14.68359375 19.984375 -14.73144531 16.48364258 C-14.90944294 10.46405103 -14.90944294 10.46405103 -17.35546875 5.05859375 C-18.04125 4.43597656 -18.72703125 3.81335938 -19.43359375 3.171875 C-20.09359375 2.511875 -20.75359375 1.851875 -21.43359375 1.171875 C-14.29118632 0.7318587 -7.14691953 0.35775251 0 0 Z " fill="#665E66" transform="translate(349.43359375,79.828125)"/>
<path d="M0 0 C10.56 0 21.12 0 32 0 C32.061875 3.34125 32.12375 6.6825 32.1875 10.125 C32.22846802 11.68758545 32.22846802 11.68758545 32.27026367 13.28173828 C32.31800317 18.61932257 32.03976249 22.40346595 29 27 C25.55014186 30.22728665 22.64963331 30.98814842 17.97558594 31.02172852 C16.24743652 30.95103149 16.24743652 30.95103149 14.484375 30.87890625 C13.23398437 30.83056641 11.98359375 30.78222656 10.6953125 30.73242188 C9.39335937 30.67634766 8.09140625 30.62027344 6.75 30.5625 C5.43257813 30.51029297 4.11515625 30.45808594 2.7578125 30.40429688 C-0.49503428 30.27465443 -3.74757167 30.13968844 -7 30 C-6.57702637 29.63318115 -6.15405273 29.2663623 -5.71826172 28.88842773 C-1.15917143 24.38754714 -0.29443021 20.83064035 -0.11767578 14.50805664 C-0.12009277 13.37102295 -0.12250977 12.23398926 -0.125 11.0625 C-0.08375 7.411875 -0.0425 3.76125 0 0 Z " fill="#665E66" transform="translate(335,401)"/>
<path d="M0 0 C5.28 0 10.56 0 16 0 C16 16.5 16 33 16 50 C10.72 50 5.44 50 0 50 C0 33.5 0 17 0 0 Z " fill="#FECF64" transform="translate(330,431)"/>
<path d="M0 0 C5.28 0 10.56 0 16 0 C16 16.5 16 33 16 50 C10.72 50 5.44 50 0 50 C0 33.5 0 17 0 0 Z " fill="#FECF64" transform="translate(248,431)"/>
<path d="M0 0 C5.28 0 10.56 0 16 0 C16 16.5 16 33 16 50 C10.72 50 5.44 50 0 50 C0 33.5 0 17 0 0 Z " fill="#FECF64" transform="translate(166,431)"/>
<path d="M0 0 C16.5 0 33 0 50 0 C50 5.28 50 10.56 50 16 C33.5 16 17 16 0 16 C0 10.72 0 5.44 0 0 Z " fill="#FECF64" transform="translate(431,330)"/>
<path d="M0 0 C16.5 0 33 0 50 0 C50 5.28 50 10.56 50 16 C33.5 16 17 16 0 16 C0 10.72 0 5.44 0 0 Z " fill="#FECF64" transform="translate(31,330)"/>
<path d="M0 0 C16.5 0 33 0 50 0 C50 5.28 50 10.56 50 16 C33.5 16 17 16 0 16 C0 10.72 0 5.44 0 0 Z " fill="#FECF64" transform="translate(431,248)"/>
<path d="M0 0 C16.5 0 33 0 50 0 C50 5.28 50 10.56 50 16 C33.5 16 17 16 0 16 C0 10.72 0 5.44 0 0 Z " fill="#FECF64" transform="translate(31,248)"/>
<path d="M0 0 C16.5 0 33 0 50 0 C50 5.28 50 10.56 50 16 C33.5 16 17 16 0 16 C0 10.72 0 5.44 0 0 Z " fill="#FECF64" transform="translate(431,166)"/>
<path d="M0 0 C16.5 0 33 0 50 0 C50 5.28 50 10.56 50 16 C33.5 16 17 16 0 16 C0 10.72 0 5.44 0 0 Z " fill="#FECF64" transform="translate(31,166)"/>
<path d="M0 0 C5.28 0 10.56 0 16 0 C16 16.5 16 33 16 50 C10.72 50 5.44 50 0 50 C0 33.5 0 17 0 0 Z " fill="#FECF64" transform="translate(330,31)"/>
<path d="M0 0 C5.28 0 10.56 0 16 0 C16 16.5 16 33 16 50 C10.72 50 5.44 50 0 50 C0 33.5 0 17 0 0 Z " fill="#FECF64" transform="translate(248,31)"/>
<path d="M0 0 C5.28 0 10.56 0 16 0 C16 16.5 16 33 16 50 C10.72 50 5.44 50 0 50 C0 33.5 0 17 0 0 Z " fill="#FECF64" transform="translate(166,31)"/>
<path d="M0 0 C10.625 -0.25 10.625 -0.25 14 2 C14.61650485 7.54854369 14.61650485 7.54854369 14 10 C11.82689832 12.22805368 10.52628815 12.94019453 7.421875 13.29296875 C6.54015625 13.25816406 5.6584375 13.22335938 4.75 13.1875 C3.1825 13.125625 1.615 13.06375 0 13 C0 8.71 0 4.42 0 0 Z " fill="#E8F0FB" transform="translate(300,241)"/>
</svg>
