<?xml version="1.0" encoding="UTF-8"?>
<svg version="1.1" xmlns="http://www.w3.org/2000/svg" width="512" height="512">
<path d="M0 0 C7.97954835 7.25714738 15.33327054 14.75428351 21 24 C21.63164062 23.56429687 22.26328125 23.12859375 22.9140625 22.6796875 C40.26723751 11.12757388 58.60050198 6.05470367 79.29296875 9.65234375 C98.18404099 13.60924221 113.95532435 24.14485038 125 40 C132.58415394 52.30732124 135.873728 65.60775826 135 80 C135.66 79.67 136.32 79.34 137 79 C161.0436759 77.64542671 181.61049391 83.47783984 199.80078125 99.4609375 C215.51125016 114.28049462 223.45900521 132.9302529 225.28515625 154.34375 C225.93771516 177.26842837 216.94757536 197.86810865 201.48535156 214.48974609 C189.42622105 226.75105138 170.4103082 235.79111346 153.05711365 236.06141663 C151.61024718 236.05727043 150.16338694 236.04982091 148.71655273 236.03930664 C147.97388908 236.03646919 147.23122543 236.03363174 146.46605682 236.03070831 C144.64402404 236.02333759 142.82200779 236.01205922 141 236 C141.00460896 236.6813822 141.00921793 237.3627644 141.01396656 238.06479454 C141.12458222 254.67519771 141.20722257 271.2854836 141.25906086 287.89616966 C141.28479843 295.92912431 141.31986321 303.96183249 141.37719727 311.99462891 C141.42716922 318.99932071 141.45932332 326.00383394 141.47044247 333.00869906 C141.4769381 336.71483964 141.49211003 340.42046953 141.52865028 344.12644577 C141.56919487 348.27251194 141.56994065 352.41770085 141.56762695 356.56396484 C141.58560333 357.78101105 141.60357971 358.99805725 141.62210083 360.25198364 C141.56893326 369.07990355 139.56241344 375.48568661 134.0703125 382.4453125 C109.06961832 404.03225727 72.52047166 407.57274824 41 411 C40.19933105 411.08765625 39.39866211 411.1753125 38.57373047 411.265625 C34.0517535 411.72861846 29.54206101 411.92181256 25 412 C23.90204102 412.02046387 22.80408203 412.04092773 21.67285156 412.06201172 C-3.88867444 412.46048436 -28.89970535 411.2535419 -54.09228516 406.67700195 C-59.80537303 405.64292918 -65.18819567 404.67330094 -71 405 C-69.28549678 410.53468273 -66.84040076 415.51824633 -64.2421875 420.68359375 C-62.79015383 424.56024969 -62.51779682 426.88009516 -63 431 C-64.55383339 433.55070425 -66.55891054 435.51810769 -68.6953125 437.58984375 C-69.28037567 438.17923233 -69.86543884 438.76862091 -70.4682312 439.37586975 C-71.70568141 440.61370038 -72.95185864 441.84286037 -74.20605469 443.0637207 C-76.12096109 444.93355616 -77.99870944 446.83564434 -79.875 448.74414062 C-81.08387113 449.94479243 -82.29474479 451.14343207 -83.5078125 452.33984375 C-84.06743683 452.90847641 -84.62706116 453.47710907 -85.2036438 454.06297302 C-87.80650178 456.55913183 -89.502024 457.92363795 -93.109375 458.47680664 C-95.99054488 458.00155962 -98.13036422 457.31927244 -100.7421875 456.03125 C-101.58007812 455.62519531 -102.41796875 455.21914063 -103.28125 454.80078125 C-104.1371875 454.37152344 -104.993125 453.94226563 -105.875 453.5 C-106.75414062 453.07074219 -107.63328125 452.64148438 -108.5390625 452.19921875 C-110.69808171 451.14317674 -112.85119372 450.07663021 -115 449 C-115.26216309 449.65597168 -115.52432617 450.31194336 -115.79443359 450.98779297 C-116.98267196 453.95234521 -118.17872959 456.91368031 -119.375 459.875 C-119.7875 460.90753906 -120.2 461.94007813 -120.625 463.00390625 C-121.22441406 464.48310547 -121.22441406 464.48310547 -121.8359375 465.9921875 C-122.20251465 466.90339355 -122.5690918 467.81459961 -122.94677734 468.75341797 C-124 471 -124 471 -126 473 C-128.97788416 473.21236892 -131.86036047 473.30395649 -134.83984375 473.30078125 C-135.71774063 473.30506638 -136.59563751 473.3093515 -137.50013733 473.31376648 C-139.35872535 473.319515 -141.21733587 473.32000621 -143.07592773 473.31567383 C-145.92275332 473.31251636 -148.76853757 473.33595737 -151.61523438 473.36132812 C-153.41926952 473.36360128 -155.22330746 473.36430454 -157.02734375 473.36328125 C-158.30713356 473.37709587 -158.30713356 473.37709587 -159.61277771 473.39118958 C-165.5854803 473.34434351 -165.5854803 473.34434351 -167.68734741 471.59831238 C-169.19436868 469.76333276 -169.97000174 468.08877343 -170.82421875 465.875 C-171.13037109 465.08609375 -171.43652344 464.2971875 -171.75195312 463.484375 C-172.06068359 462.66453125 -172.36941406 461.8446875 -172.6875 461 C-173.00783203 460.18015625 -173.32816406 459.3603125 -173.65820312 458.515625 C-176 452.40398454 -176 452.40398454 -176 449 C-176.59949463 449.27787354 -177.19898926 449.55574707 -177.81665039 449.84204102 C-180.55740848 451.10019359 -183.30948329 452.33141678 -186.0625 453.5625 C-187.00544922 454.00013672 -187.94839844 454.43777344 -188.91992188 454.88867188 C-189.84482422 455.29794922 -190.76972656 455.70722656 -191.72265625 456.12890625 C-192.56578369 456.51119385 -193.40891113 456.89348145 -194.27758789 457.28735352 C-197.96236526 458.25191859 -200.31797048 457.98636183 -204 457 C-206.30561662 455.26483579 -208.13449804 453.68691658 -210.1171875 451.64453125 C-210.65981232 451.10527512 -211.20243713 450.56601898 -211.76150513 450.01042175 C-212.89974979 448.87187934 -214.03059151 447.72589266 -215.15429688 446.57299805 C-216.87183635 444.81573682 -218.61685605 443.08976785 -220.3671875 441.36523438 C-221.47311605 440.25174716 -222.57734322 439.13656698 -223.6796875 438.01953125 C-224.45927322 437.25042168 -224.45927322 437.25042168 -225.25460815 436.46577454 C-228.483602 433.10846886 -229.91923412 430.68871318 -230 426 C-229.28735352 423.48291016 -229.28735352 423.48291016 -228.12890625 421.0390625 C-227.71962891 420.15605469 -227.31035156 419.27304687 -226.88867188 418.36328125 C-226.45103516 417.45964844 -226.01339844 416.55601562 -225.5625 415.625 C-225.12873047 414.69816406 -224.69496094 413.77132813 -224.24804688 412.81640625 C-223.17901662 410.53737471 -222.09616805 408.2660708 -221 406 C-227.33643452 403.11654112 -233.71842995 400.58582324 -240.27734375 398.24609375 C-243 397 -243 397 -245 394 C-245.220428 391.0734941 -245.3280386 388.24452235 -245.3359375 385.31640625 C-245.3425943 384.46449203 -245.3492511 383.61257782 -245.35610962 382.73484802 C-245.36623202 380.93352416 -245.37092677 379.13216282 -245.37060547 377.33081055 C-245.37497852 374.57603147 -245.41130042 371.82285492 -245.44921875 369.06835938 C-245.45508705 367.31771381 -245.45905635 365.56706064 -245.4609375 363.81640625 C-245.47530853 362.99338516 -245.48967957 362.17036407 -245.50448608 361.32240295 C-245.47492101 357.61876073 -245.45712318 355.63694032 -243.25537109 352.5690918 C-241.00055739 351.00038779 -239.04021632 349.98710303 -236.453125 349.078125 C-235.60878906 348.77519531 -234.76445312 348.47226562 -233.89453125 348.16015625 C-232.58548828 347.70962891 -232.58548828 347.70962891 -231.25 347.25 C-230.36183594 346.93417969 -229.47367188 346.61835938 -228.55859375 346.29296875 C-226.37576931 345.51841814 -224.18980663 344.75453535 -222 344 C-222 340.88828779 -222.45359644 339.71049618 -223.78515625 336.98046875 C-224.15060547 336.20509766 -224.51605469 335.42972656 -224.89257812 334.63085938 C-225.66869881 333.00994622 -226.45249466 331.39268444 -227.24414062 329.77929688 C-227.60830078 329.00005859 -227.97246094 328.22082031 -228.34765625 327.41796875 C-228.68804932 326.71438232 -229.02844238 326.0107959 -229.37915039 325.28588867 C-230.25161184 322.07359748 -229.96812789 320.19424682 -229 317 C-227.23721128 314.69409856 -225.55547677 312.73667271 -223.53125 310.69140625 C-222.97691284 310.12042709 -222.42257568 309.54944794 -221.85144043 308.96116638 C-220.6777733 307.76226142 -219.49730264 306.56998363 -218.31054688 305.3840332 C-216.5063831 303.56892183 -214.74597811 301.71765431 -212.984375 299.86132812 C-211.8357988 298.69808129 -210.68483096 297.53719009 -209.53125 296.37890625 C-208.75255554 295.54632042 -208.75255554 295.54632042 -207.95812988 294.69691467 C-205.60773426 292.41650403 -204.07139857 291.07739862 -200.73338318 290.83625793 C-195.3170245 291.34873836 -190.86465405 293.08539296 -186.0625 295.5625 C-181.73033953 298.01535421 -181.73033953 298.01535421 -177 299 C-176.7733667 298.37432129 -176.5467334 297.74864258 -176.31323242 297.10400391 C-175.28156187 294.27381311 -174.23475127 291.44946051 -173.1875 288.625 C-172.83107422 287.64015625 -172.47464844 286.6553125 -172.10742188 285.640625 C-171.75615234 284.69960938 -171.40488281 283.75859375 -171.04296875 282.7890625 C-170.56380005 281.48509521 -170.56380005 281.48509521 -170.07495117 280.15478516 C-169 278 -169 278 -166 276 C-162.977664 275.80351572 -160.04965179 275.72003394 -157.02734375 275.734375 C-156.14849014 275.73246155 -155.26963654 275.7305481 -154.364151 275.72857666 C-152.50733148 275.72721615 -150.6505024 275.73090325 -148.79370117 275.73925781 C-145.94493365 275.74997204 -143.09679492 275.73935149 -140.24804688 275.7265625 C-138.4453111 275.72788387 -136.64257572 275.73044579 -134.83984375 275.734375 C-133.98462631 275.73032654 -133.12940887 275.72627808 -132.24827576 275.72210693 C-126.22992618 275.77007382 -126.22992618 275.77007382 -124 278 C-123.67 264.14 -123.34 250.28 -123 236 C-126.96 236.0825 -130.92 236.165 -135 236.25 C-155.46031697 236.36690158 -174.60105107 231.06746087 -190 217 C-190.83015625 216.24976563 -191.6603125 215.49953125 -192.515625 214.7265625 C-207.64267825 200.36944909 -215.84625212 181.64374936 -216.40283203 160.93237305 C-216.62939898 139.31756719 -210.80940852 120.16118009 -196 104 C-195.43667969 103.36835938 -194.87335938 102.73671875 -194.29296875 102.0859375 C-189.75968497 97.2660058 -184.49734182 93.64246949 -179 90 C-175.86533245 88.41557258 -175.86533245 88.41557258 -175.61523438 86.17504883 C-175.60814453 85.44310303 -175.60105469 84.71115723 -175.59375 83.95703125 C-175.57417236 83.13823486 -175.55459473 82.31943848 -175.53442383 81.47583008 C-175.52306396 80.59693115 -175.5117041 79.71803223 -175.5 78.8125 C-174.66468541 53.68363951 -166.54943273 31.07606368 -150 12 C-149.32453125 11.18015625 -148.6490625 10.3603125 -147.953125 9.515625 C-131.48905679 -9.83265954 -106.08580997 -22.46656469 -80.8125 -24.8359375 C-51.27333246 -26.55905561 -22.71690284 -19.89497126 0 0 Z " fill="#2E306E" transform="translate(266,32)"/>
<path d="M0 0 C26.91228159 -0.6791743 51.49751313 9.13337468 71.05664062 27.58300781 C78.04051639 34.46857933 84.32186996 42.3192669 88.65234375 51.15625 C88.65234375 51.81625 88.65234375 52.47625 88.65234375 53.15625 C92.4924817 53.5685001 94.17626942 53.49620538 97.37109375 51.21484375 C98.28890625 50.34988281 99.20671875 49.48492187 100.15234375 48.59375 C112.86572525 37.21563772 126.84536828 33.26177951 143.61474609 34.01708984 C158.480717 35.03237901 173.75491678 43.21044208 183.65234375 54.15625 C191.51355285 63.3949099 197.53496735 74.22265663 197.93359375 86.54296875 C197.97097656 87.56326172 198.00835937 88.58355469 198.046875 89.63476562 C198.11757224 91.78579468 198.18788058 93.93683655 198.2578125 96.08789062 C198.29519531 97.10431641 198.33257812 98.12074219 198.37109375 99.16796875 C198.40138672 100.10084717 198.43167969 101.03372559 198.46289062 101.99487305 C198.41722768 104.13535459 198.41722768 104.13535459 199.65234375 105.15625 C201.60140625 104.9396875 201.60140625 104.9396875 203.58984375 104.71875 C224.86793405 102.46935188 244.52686057 105.38575038 261.84887695 119.01513672 C274.19468699 129.24734407 283.30255975 143.36048708 286.65234375 159.15625 C287.02893261 163.37520602 287.02843781 167.54842932 286.96484375 171.78125 C286.96967773 173.40160156 286.96967773 173.40160156 286.97460938 175.0546875 C286.85439507 192.97754825 279.42211223 208.76839046 267.46484375 221.90625 C254.99467578 233.43257498 237.89458804 241.43091428 220.83984375 241.21875 C220.14697266 241.21423828 219.45410156 241.20972656 218.74023438 241.20507812 C217.04423307 241.19338156 215.34827672 241.17544924 213.65234375 241.15625 C213.64869812 240.57488785 213.64505249 239.9935257 213.64129639 239.39454651 C213.5992878 233.31024063 213.52981505 227.22667625 213.44482422 221.14282227 C213.41670475 218.87629637 213.39544561 216.60967406 213.38134766 214.34301758 C213.35979336 211.07323158 213.31307764 207.80459391 213.26171875 204.53515625 C213.25987579 203.02992149 213.25987579 203.02992149 213.25799561 201.49427795 C213.08259546 192.95212063 210.82547487 185.32938112 204.65234375 179.15625 C196.88149003 172.62238932 187.96763586 168.90197799 178.65234375 165.15625 C177.70359375 164.764375 176.75484375 164.3725 175.77734375 163.96875 C157.95377438 157.01321073 137.79226936 154.07297722 118.83984375 152.46875 C118.1144339 152.40587799 117.38902405 152.34300598 116.64163208 152.27822876 C103.46309037 151.16815262 90.31127245 150.86035675 77.08984375 150.84375 C76.19880951 150.84025543 75.30777527 150.83676086 74.38973999 150.8331604 C62.33707691 150.80683755 50.59986345 151.59012911 38.65234375 153.15625 C37.65581787 153.27653564 36.65929199 153.39682129 35.63256836 153.52075195 C9.5800822 156.69060784 -25.88870196 161.29121977 -44.19140625 182.26953125 C-47.7513555 186.86220163 -49.4489799 190.18846272 -49.55297852 196.08666992 C-49.57292374 197.08748093 -49.59286896 198.08829193 -49.61341858 199.11943054 C-49.63013107 200.19763565 -49.64684357 201.27584076 -49.6640625 202.38671875 C-49.69523415 204.04505486 -49.69523415 204.04505486 -49.72703552 205.7368927 C-49.79247957 209.2724479 -49.85139228 212.80807806 -49.91015625 216.34375 C-49.95334635 218.73894008 -49.99696079 221.13412255 -50.04101562 223.52929688 C-50.14815573 229.40486842 -50.24993182 235.28051472 -50.34765625 241.15625 C-54.16662642 241.20210055 -57.98552452 241.22955201 -61.8046875 241.25390625 C-63.41253113 241.27354431 -63.41253113 241.27354431 -65.05285645 241.2935791 C-84.29068804 241.38541523 -100.37487932 234.40742812 -114.34765625 221.15625 C-121.10395424 214.12588701 -125.4800892 206.02717595 -129.34765625 197.15625 C-129.78464844 196.17398438 -130.22164062 195.19171875 -130.671875 194.1796875 C-136.49477976 178.69280397 -134.92344399 160.12240994 -128.34765625 145.15625 C-121.40758695 130.63893383 -110.24778865 119.25495156 -96.3515625 111.3203125 C-94.41696263 110.31097402 -94.41696263 110.31097402 -93.34765625 109.15625 C-93.23784934 107.42957892 -93.19172938 105.6987952 -93.171875 103.96875 C-92.57850709 73.16860249 -84.53684954 47.20254101 -61.7109375 25.21875 C-44.09702231 9.84660584 -23.37395611 1.09096645 0 0 Z " fill="#EAF6FE" transform="translate(193.34765625,16.84375)"/>
<path d="M0 0 C9.57 0 19.14 0 29 0 C32.13751823 7.53004376 35.03933924 14.78986779 37.59375 22.48046875 C38.74101822 25.19048432 38.74101822 25.19048432 41.26538086 25.79248047 C44.59387749 26.04506704 46.19159666 25.33058351 49.16015625 23.83984375 C50.11857422 23.37642578 51.07699219 22.91300781 52.06445312 22.43554688 C54.06783936 21.43450633 56.07044108 20.43189425 58.07226562 19.42773438 C59.50795898 18.73454102 59.50795898 18.73454102 60.97265625 18.02734375 C61.84156494 17.59156006 62.71047363 17.15577637 63.60571289 16.70678711 C66 16 66 16 68.05737305 16.62866211 C70.31057317 18.2192396 72.17288303 19.94822974 74.109375 21.9140625 C74.86347656 22.67460937 75.61757812 23.43515625 76.39453125 24.21875 C77.17183594 25.0128125 77.94914063 25.806875 78.75 26.625 C79.54277344 27.42679687 80.33554688 28.22859375 81.15234375 29.0546875 C83.10614493 31.03202846 85.05512103 33.01388909 87 35 C84.93226126 41.59561348 82.3379512 47.61863632 79.20703125 53.7890625 C77.85238743 57.3926781 77.78358399 60.18145981 78 64 C79.72809031 64.73171392 81.45756202 65.46016515 83.1875 66.1875 C84.15042969 66.59355469 85.11335937 66.99960937 86.10546875 67.41796875 C91.70491423 69.69256797 97.3590402 71.83040008 103 74 C103 83.57 103 93.14 103 103 C91.125 107.375 91.125 107.375 87.38330078 108.74365234 C86.41376465 109.10410645 85.44422852 109.46456055 84.4453125 109.8359375 C82.95281982 110.38580322 82.95281982 110.38580322 81.43017578 110.94677734 C78.87960904 111.87531649 78.87960904 111.87531649 77 114 C77.37216397 117.59106249 78.56131418 120.50154307 80.13671875 123.72265625 C80.54857422 124.59083984 80.96042969 125.45902344 81.38476562 126.35351562 C82.2569904 128.16727239 83.13728384 129.97716991 84.02539062 131.78320312 C84.43337891 132.65009766 84.84136719 133.51699219 85.26171875 134.41015625 C85.83345825 135.58783569 85.83345825 135.58783569 86.41674805 136.78930664 C87 139 87 139 86.33740234 141.0480957 C84.8437247 143.22807978 83.23328003 144.97566529 81.33984375 146.8203125 C80.2734668 147.87025391 80.2734668 147.87025391 79.18554688 148.94140625 C78.44369141 149.66199219 77.70183594 150.38257813 76.9375 151.125 C75.46526807 152.56287561 73.99510844 154.00287708 72.52734375 155.4453125 C71.87499756 156.07969238 71.22265137 156.71407227 70.55053711 157.36767578 C68.91114 158.93459167 68.91114 158.93459167 68 161 C64.41690441 159.91299347 61.03883254 158.60195448 57.65234375 157.01953125 C56.88212891 156.66052734 56.11191406 156.30152344 55.31835938 155.93164062 C53.72338829 155.18191262 52.13223907 154.42400269 50.54492188 153.65820312 C49.3915332 153.12549805 49.3915332 153.12549805 48.21484375 152.58203125 C47.52511475 152.25436768 46.83538574 151.9267041 46.12475586 151.58911133 C43.33512792 150.81565709 41.71458008 151.00731751 39 152 C37.61815118 153.87346644 37.61815118 153.87346644 36.83203125 156.296875 C36.49623047 157.1734375 36.16042969 158.05 35.81445312 158.953125 C35.31848633 160.33757812 35.31848633 160.33757812 34.8125 161.75 C34.47025391 162.6575 34.12800781 163.565 33.77539062 164.5 C33.13514612 166.20068832 32.50311286 167.90450726 31.88208008 169.61230469 C30.96607231 172.09183859 29.98170567 174.54573583 29 177 C19.43 177 9.86 177 0 177 C-1.485 173.08125 -2.97 169.1625 -4.5 165.125 C-4.96986328 163.89023926 -5.43972656 162.65547852 -5.92382812 161.38330078 C-6.28927734 160.41376465 -6.65472656 159.44422852 -7.03125 158.4453125 C-7.40830078 157.45031738 -7.78535156 156.45532227 -8.17382812 155.43017578 C-9 153 -9 153 -9 151 C-13.44234789 150.77189485 -16.38271314 151.29774736 -20.3984375 153.1875 C-21.37167969 153.63867188 -22.34492187 154.08984375 -23.34765625 154.5546875 C-24.84619141 155.27011719 -24.84619141 155.27011719 -26.375 156 C-27.39722656 156.47695313 -28.41945312 156.95390625 -29.47265625 157.4453125 C-31.98672959 158.62011313 -34.49538242 159.80520653 -37 161 C-41.7900234 156.9597827 -46.47684078 152.83769939 -51 148.5 C-51.89525391 147.68595703 -51.89525391 147.68595703 -52.80859375 146.85546875 C-56.96209246 142.8362633 -56.96209246 142.8362633 -57.12890625 139.15625 C-55.3402779 134.15551746 -53.10177351 129.41213589 -50.79492188 124.6328125 C-48.74668533 120.23262259 -47.49794776 116.97270787 -48 112 C-48.53625 111.85304688 -49.0725 111.70609375 -49.625 111.5546875 C-57.93812407 109.17560265 -65.92454437 106.07962291 -74 103 C-74 93.43 -74 83.86 -74 74 C-62.125 69.625 -62.125 69.625 -58.38330078 68.25634766 C-57.41376465 67.89589355 -56.44422852 67.53543945 -55.4453125 67.1640625 C-53.95281982 66.61419678 -53.95281982 66.61419678 -52.43017578 66.05322266 C-49.87960904 65.12468351 -49.87960904 65.12468351 -48 63 C-48.25701299 56.23199122 -51.20859992 51.04115668 -54.29296875 45.140625 C-54.65261719 44.42132813 -55.01226562 43.70203125 -55.3828125 42.9609375 C-55.71684082 42.31946777 -56.05086914 41.67799805 -56.39501953 41.01708984 C-57.22159393 38.26117472 -56.91807889 36.72113854 -56 34 C-54.23413086 31.7800293 -54.23413086 31.7800293 -51.96484375 29.57421875 C-51.15595703 28.77822266 -50.34707031 27.98222656 -49.51367188 27.16210938 C-48.66353516 26.34548828 -47.81339844 25.52886719 -46.9375 24.6875 C-46.08349609 23.85154297 -45.22949219 23.01558594 -44.34960938 22.15429688 C-42.24178688 20.09357656 -40.12520151 18.04276791 -38 16 C-31.13445156 18.67342512 -24.56118317 21.61538533 -17.98046875 24.92578125 C-14.67310465 26.11781942 -13.22064121 26.41353444 -10 25 C-8.46731294 22.70156666 -8.46731294 22.70156666 -7.5 19.75 C-7.1390625 18.79609375 -6.778125 17.8421875 -6.40625 16.859375 C-5.9421875 15.58578125 -5.478125 14.3121875 -5 13 C-3.35 8.71 -1.7 4.42 0 0 Z " fill="#7A758B" transform="translate(105,318)"/>
<path d="M0 0 C2.55148685 0.42742568 5.09623948 0.79002574 7.66259766 1.11230469 C16.69649178 2.32658913 25.18381487 4.9849125 33.83056641 7.80761719 C35.52584473 8.35808716 35.52584473 8.35808716 37.25537109 8.91967773 C48.37837133 12.69583317 59.52631091 17.48962622 66.89306641 26.99511719 C68.28361128 30.26698748 68.57951514 31.95940768 67.95556641 35.49511719 C60.57467969 49.44611139 43.1141911 54.49131558 29.04980469 58.86743164 C21.12748736 61.24191029 13.23148477 63.15487415 5.08056641 64.55761719 C3.77345703 64.79834961 3.77345703 64.79834961 2.43994141 65.04394531 C-15.33064722 68.14259837 -33.11426168 68.82280158 -51.11914062 68.75585938 C-54.54103299 68.74512785 -57.96240061 68.75583214 -61.38427734 68.76855469 C-80.63177043 68.78093088 -99.18593634 67.38468225 -118.04443359 63.49511719 C-119.26130859 63.28113281 -120.47818359 63.06714844 -121.73193359 62.84667969 C-139.46701155 59.65286268 -163.82958604 53.86866201 -175.04443359 38.49511719 C-176.29941316 34.73017849 -176.56507803 32.46503101 -176.04443359 28.49511719 C-167.60040864 14.21601851 -147.90633922 8.61845746 -132.91943359 4.30761719 C-90.4975145 -6.20760318 -43.02694615 -7.33435673 0 0 Z " fill="#EAF6FE" transform="translate(329.04443359375,180.5048828125)"/>
<path d="M0 0 C1.10408203 0.60400635 1.10408203 0.60400635 2.23046875 1.22021484 C3.69419922 2.01999756 3.69419922 2.01999756 5.1875 2.8359375 C6.63189453 3.62556885 6.63189453 3.62556885 8.10546875 4.43115234 C22.58836644 12.28094153 36.98109218 16.46271156 53 20 C54.28519531 20.29003906 55.57039063 20.58007812 56.89453125 20.87890625 C60.91444442 21.7107626 64.94070293 22.39767402 69 23 C69.9089502 23.13680176 70.81790039 23.27360352 71.75439453 23.41455078 C104.83823346 28.14233637 139.98332757 28.14495627 173 23 C173.96502441 22.85546387 174.93004883 22.71092773 175.92431641 22.56201172 C196.95838636 19.33781121 221.33060004 15.106378 238.87890625 2.25390625 C242 0 242 0 244 0 C244.1018729 6.26206481 244.17166281 12.52391392 244.21972656 18.78662109 C244.23977468 20.91463202 244.26702054 23.04258832 244.30175781 25.17041016 C244.35057548 28.23874433 244.37303726 31.30634673 244.390625 34.375 C244.41127014 35.31802979 244.43191528 36.26105957 244.45318604 37.23266602 C244.45574735 44.86538267 242.62059075 50.57416234 237.1875 56.0625 C206.4867233 80.10055495 156.4052558 78.26708966 119.8125 78.3125 C118.64752991 78.31608521 117.48255981 78.31967041 116.2822876 78.32336426 C30.24850277 78.46580179 30.24850277 78.46580179 4.625 54.3125 C-0.55499147 48.73085143 -0.27116036 42.65287842 -0.1953125 35.44921875 C-0.1924826 34.43527542 -0.18965271 33.42133209 -0.18673706 32.37666321 C-0.17556625 29.14682073 -0.15046711 25.91725829 -0.125 22.6875 C-0.1149662 20.49414464 -0.10584105 18.30078492 -0.09765625 16.10742188 C-0.07563707 10.73818614 -0.04219023 5.36911308 0 0 Z " fill="#EAC136" transform="translate(153,232)"/>
<path d="M0 0 C4.455 2.97 4.455 2.97 9 6 C12.28564928 7.62679708 15.50569464 9.14342636 18.875 10.5625 C19.78918701 10.94817139 20.70337402 11.33384277 21.64526367 11.73120117 C38.12497856 18.48900844 55.41869028 21.56869385 73 24 C74.22565674 24.18022705 75.45131348 24.3604541 76.71411133 24.54614258 C89.97737022 26.35062289 103.25380501 26.33809233 116.61938477 26.31567383 C120.53104863 26.31252532 124.44194524 26.3360129 128.35351562 26.36132812 C144.45803324 26.40146241 160.07093606 25.33666636 176 23 C178.01390527 22.71737135 180.02782121 22.4348187 182.04174805 22.15234375 C201.68583236 19.39420086 222.12766997 13.67658917 239 3 C240.66531086 1.99774379 242.33180679 0.99745135 244 0 C244.07623218 6.29874903 244.1286762 12.59737851 244.16479492 18.89648438 C244.17985641 21.03813117 244.20030972 23.17974724 244.22631836 25.32128906 C244.26281728 28.40437411 244.27975302 31.48705038 244.29296875 34.5703125 C244.30845261 35.52366486 244.32393646 36.47701721 244.33988953 37.45925903 C244.34145427 43.67754639 243.53819306 48.0153296 239.37890625 52.90625 C225.16271162 65.37981432 204.26288539 70.83174253 186 74 C185.33983887 74.1232666 184.67967773 74.2465332 183.99951172 74.37353516 C146.27308967 81.39260565 81.82649664 88.91324832 46 71 C46.43279692 68.40321849 46.82666698 66.30814759 48.125 64 C49.36412981 61.16770328 48.962592 59.94528691 48 57 C46.2003809 54.77746767 44.43466126 52.80278919 42.42578125 50.7890625 C41.86432907 50.2166684 41.30287689 49.64427429 40.72441101 49.05453491 C39.53673051 47.85102114 38.3437068 46.65275994 37.14575195 45.45947266 C35.31653836 43.62904105 33.51862873 41.77126617 31.72070312 39.91015625 C30.56169157 38.7430057 29.40094026 37.57757967 28.23828125 36.4140625 C27.70366776 35.85586823 27.16905426 35.29767395 26.61824036 34.7225647 C24.89988917 32.96919278 24.89988917 32.96919278 22 31 C14.0576897 32.07216985 14.0576897 32.07216985 0 39 C0 26.13 0 13.26 0 0 Z " fill="#E9F5FE" transform="translate(153,293)"/>
<path d="M0 0 C9.57 0 19.14 0 29 0 C32.13751823 7.53004376 35.03933924 14.78986779 37.59375 22.48046875 C38.75741852 25.19006559 38.75741852 25.19006559 41.34375 25.92578125 C44.00644206 26.12982053 44.00644206 26.12982053 46.5078125 25.30859375 C49 25 49 25 51.4921875 26.66015625 C52.67167969 27.84931641 52.67167969 27.84931641 53.875 29.0625 C54.67679688 29.83722656 55.47859375 30.61195313 56.3046875 31.41015625 C58 34 58 34 58.04296875 36.69140625 C56.58933834 41.30273567 54.56815492 45.54190698 52.4375 49.875 C52.01275391 50.75414062 51.58800781 51.63328125 51.15039062 52.5390625 C50.10703441 54.69611356 49.05678116 56.84950288 48 59 C47.48195801 58.5987793 46.96391602 58.19755859 46.43017578 57.78417969 C42.70506331 54.93754201 39.11546818 52.29326189 34.875 50.25 C33.69550781 49.66992188 33.69550781 49.66992188 32.4921875 49.078125 C22.43797676 44.72865452 8.7787583 43.70999102 -1.6875 47.5625 C-13.80935016 53.64476636 -22.15660158 63.28744081 -27.08203125 75.734375 C-30.3498979 87.35963677 -28.22860307 99.92838076 -22.71484375 110.453125 C-16.92786212 119.93152388 -7.88658362 127.45620969 2.88574219 130.53979492 C14.24911701 133.01323159 26.89026157 131.65079693 37 126 C39.55386632 124.25956025 41.94292726 122.45872627 44.29296875 120.453125 C46 119 46 119 48 118 C49.71011004 121.38490017 51.38895152 124.78439406 53.0625 128.1875 C53.54783203 129.14720703 54.03316406 130.10691406 54.53320312 131.09570312 C54.98759766 132.02705078 55.44199219 132.95839844 55.91015625 133.91796875 C56.33433838 134.77156982 56.75852051 135.6251709 57.19555664 136.50463867 C58.14972008 139.46442761 57.91949808 141.05729706 57 144 C54.79605111 147.27218942 52.30126895 149.83216672 49 152 C45.74189927 152.37206706 43.13823197 151.81942724 40 151 C37.03505174 156.71998868 34.53500817 162.47975322 32.25 168.5 C31.1775 171.305 30.105 174.11 29 177 C19.43 177 9.86 177 0 177 C-1.485 173.08125 -2.97 169.1625 -4.5 165.125 C-4.96986328 163.89023926 -5.43972656 162.65547852 -5.92382812 161.38330078 C-6.28927734 160.41376465 -6.65472656 159.44422852 -7.03125 158.4453125 C-7.40830078 157.45031738 -7.78535156 156.45532227 -8.17382812 155.43017578 C-9 153 -9 153 -9 151 C-13.44234789 150.77189485 -16.38271314 151.29774736 -20.3984375 153.1875 C-21.37167969 153.63867188 -22.34492187 154.08984375 -23.34765625 154.5546875 C-24.84619141 155.27011719 -24.84619141 155.27011719 -26.375 156 C-27.39722656 156.47695313 -28.41945312 156.95390625 -29.47265625 157.4453125 C-31.98672959 158.62011313 -34.49538242 159.80520653 -37 161 C-41.7900234 156.9597827 -46.47684078 152.83769939 -51 148.5 C-51.89525391 147.68595703 -51.89525391 147.68595703 -52.80859375 146.85546875 C-56.96209246 142.8362633 -56.96209246 142.8362633 -57.12890625 139.15625 C-55.3402779 134.15551746 -53.10177351 129.41213589 -50.79492188 124.6328125 C-48.74668533 120.23262259 -47.49794776 116.97270787 -48 112 C-48.53625 111.85304688 -49.0725 111.70609375 -49.625 111.5546875 C-57.93812407 109.17560265 -65.92454437 106.07962291 -74 103 C-74 93.43 -74 83.86 -74 74 C-62.125 69.625 -62.125 69.625 -58.38330078 68.25634766 C-57.41376465 67.89589355 -56.44422852 67.53543945 -55.4453125 67.1640625 C-53.95281982 66.61419678 -53.95281982 66.61419678 -52.43017578 66.05322266 C-49.87960904 65.12468351 -49.87960904 65.12468351 -48 63 C-48.25701299 56.23199122 -51.20859992 51.04115668 -54.29296875 45.140625 C-54.65261719 44.42132813 -55.01226562 43.70203125 -55.3828125 42.9609375 C-55.71684082 42.31946777 -56.05086914 41.67799805 -56.39501953 41.01708984 C-57.22159393 38.26117472 -56.91807889 36.72113854 -56 34 C-54.23413086 31.7800293 -54.23413086 31.7800293 -51.96484375 29.57421875 C-51.15595703 28.77822266 -50.34707031 27.98222656 -49.51367188 27.16210938 C-48.66353516 26.34548828 -47.81339844 25.52886719 -46.9375 24.6875 C-46.08349609 23.85154297 -45.22949219 23.01558594 -44.34960938 22.15429688 C-42.24178688 20.09357656 -40.12520151 18.04276791 -38 16 C-31.13445156 18.67342512 -24.56118317 21.61538533 -17.98046875 24.92578125 C-14.67310465 26.11781942 -13.22064121 26.41353444 -10 25 C-8.46731294 22.70156666 -8.46731294 22.70156666 -7.5 19.75 C-7.1390625 18.79609375 -6.778125 17.8421875 -6.40625 16.859375 C-5.9421875 15.58578125 -5.478125 14.3121875 -5 13 C-3.35 8.71 -1.7 4.42 0 0 Z " fill="#888399" transform="translate(105,318)"/>
<path d="M0 0 C0.07623218 6.29874903 0.1286762 12.59737851 0.16479492 18.89648438 C0.17985641 21.03813117 0.20030972 23.17974724 0.22631836 25.32128906 C0.26281728 28.40437411 0.27975302 31.48705038 0.29296875 34.5703125 C0.30845261 35.52366486 0.32393646 36.47701721 0.33988953 37.45925903 C0.34144878 43.65573991 -0.47456397 47.95293739 -4.55078125 52.87109375 C-14.54757936 61.75959939 -27.30850527 66.38441694 -40 70 C-40.71881348 70.20866699 -41.43762695 70.41733398 -42.17822266 70.63232422 C-58.00352819 75.11169611 -74.18039588 76.88250089 -90.48535156 78.62426758 C-92.53040097 78.84289296 -94.57463783 79.07008694 -96.61621094 79.3190918 C-104.6754026 80.26068931 -112.77118496 80.28410563 -120.875 80.3125 C-121.66970703 80.31611542 -122.46441406 80.31973083 -123.28320312 80.32345581 C-142.76665301 80.35862887 -162.90244833 79.07453694 -182 75 C-181.34 74.01 -180.68 73.02 -180 72 C-179.76758981 69.06218709 -179.64794525 66.22151544 -179.62890625 63.28125 C-179.61987778 62.42696411 -179.6108493 61.57267822 -179.60154724 60.69250488 C-179.58704555 58.88699856 -179.5781582 57.08143969 -179.57446289 55.27587891 C-179.56254244 52.50984776 -179.51333912 49.74603055 -179.46289062 46.98046875 C-179.45342911 45.2265734 -179.44619277 43.47266434 -179.44140625 41.71875 C-179.42187393 40.89056763 -179.40234161 40.06238525 -179.38221741 39.20910645 C-179.34623925 36.60465087 -179.34623925 36.60465087 -180 33 C-182.15799387 30.92636221 -182.15799387 30.92636221 -185 30 C-185.7628833 29.67555908 -186.5257666 29.35111816 -187.31176758 29.0168457 C-188.08157959 28.73929443 -188.8513916 28.46174316 -189.64453125 28.17578125 C-190.90620117 27.71655273 -190.90620117 27.71655273 -192.19335938 27.24804688 C-193.05767578 26.93931641 -193.92199219 26.63058594 -194.8125 26.3125 C-195.69615234 25.99216797 -196.57980469 25.67183594 -197.49023438 25.34179688 C-199.65851896 24.55652624 -201.82841578 23.77608898 -204 23 C-203.67 21.68 -203.34 20.36 -203 19 C-201.02024279 19.28763088 -199.04122392 19.58034466 -197.0625 19.875 C-195.40927734 20.11863281 -195.40927734 20.11863281 -193.72265625 20.3671875 C-191.0243976 20.82586316 -188.42047825 21.35061471 -185.76171875 21.97265625 C-169.55202735 25.64756144 -152.57877878 26.67413341 -136 27 C-134.72721191 27.02723145 -133.45442383 27.05446289 -132.14306641 27.08251953 C-111.87288027 27.47741071 -92.12360033 26.73250424 -72 24 C-70.9584375 23.86609863 -69.916875 23.73219727 -68.84375 23.59423828 C-47.71531325 20.81506731 -17.74203248 0 0 0 Z " fill="#EAC136" transform="translate(397,354)"/>
<path d="M0 0 C11.94848953 8.6224588 20.92205444 21.48618993 24 36 C24.13324009 37.79307508 24.22310514 39.58964047 24.28125 41.38671875 C24.33732422 42.9171582 24.33732422 42.9171582 24.39453125 44.47851562 C24.46522849 46.62954468 24.53553683 48.78058655 24.60546875 50.93164062 C24.66154297 52.4562793 24.66154297 52.4562793 24.71875 54.01171875 C24.74904297 54.94459717 24.77933594 55.87747559 24.81054688 56.83862305 C24.76488393 58.97910459 24.76488393 58.97910459 26 60 C27.9490625 59.7834375 27.9490625 59.7834375 29.9375 59.5625 C51.2155903 57.31310188 70.87451682 60.22950038 88.1965332 73.85888672 C100.54234324 84.09109407 109.650216 98.20423708 113 114 C113.37658886 118.21895602 113.37609406 122.39217932 113.3125 126.625 C113.31572266 127.70523438 113.31894531 128.78546875 113.32226562 129.8984375 C113.20204469 147.82228625 105.79524211 163.91928259 93.5625 176.875 C82.75234962 187 82.75234962 187 78 187 C79.30361686 183.63331975 80.77564402 180.42186639 82.375 177.1875 C90.4956615 159.16300505 91.771495 139.66840224 85 121 C81.42110404 111.94406077 76.50605162 104.21213474 70 97 C69.39671875 96.30390625 68.7934375 95.6078125 68.171875 94.890625 C59.48398216 85.47265713 48.03791953 79.91232385 36 76 C35.2678125 75.75378906 34.535625 75.50757813 33.78125 75.25390625 C23.25596766 72.31897175 10.71289982 73.63963177 0 75 C-0.01417969 73.73027344 -0.02835937 72.46054688 -0.04296875 71.15234375 C-0.46108211 52.8411229 -4.73415866 35.57434928 -18 22 C-33.75576925 7.64474358 -51.29030542 3.43737475 -72 3 C-68.38941933 -0.95056002 -65.05742638 -3.29817559 -60.1875 -5.6875 C-59.02605469 -6.26886719 -57.86460937 -6.85023437 -56.66796875 -7.44921875 C-37.55417588 -15.53034311 -17.10782855 -10.50488773 0 0 Z " fill="#C6DEFC" transform="translate(367,62)"/>
<path d="M0 0 C7.65028723 5.47798345 12.28888272 12.36664815 15.25 21.25 C16.18652416 33.05634555 14.45145071 42.15691654 6.9296875 51.4375 C-0.12948995 59.05484497 -9.385814 63.25270178 -19.8125 63.75 C-30.34501975 63.22674982 -39.2480023 58.20591251 -46.3125 50.55859375 C-53.14176677 41.7984331 -53.58407531 32.03424129 -52.75 21.25 C-51.42685523 13.16808872 -46.8165155 6.71295105 -40.64453125 1.45703125 C-27.97654077 -7.6235637 -13.23662914 -8.30620688 0 0 Z " fill="#E9F5FD" transform="translate(138.75,377.75)"/>
<path d="M0 0 C26.91417643 -0.67922212 51.49910517 9.13355236 71.05664062 27.58740234 C78.44413054 34.85056179 84.13695526 42.83178923 88.65234375 52.15625 C87.75773438 52.55714844 86.863125 52.95804688 85.94140625 53.37109375 C77.55135798 57.26838398 71.19623946 61.50680759 64.65234375 68.15625 C62.09087739 65.01692572 59.71797138 61.83453324 57.46484375 58.46875 C41.01573217 34.88002404 17.6435626 20.61347845 -10.5234375 15.58984375 C-15.377774 15.03945422 -20.1540669 15.00788353 -25.03515625 15.03125 C-26.49139404 15.03415039 -26.49139404 15.03415039 -27.97705078 15.03710938 C-34.81295298 15.07824133 -41.55386777 15.35360832 -48.34765625 16.15625 C-44.6605769 12.98397041 -40.86716024 10.6880246 -36.47265625 8.65625 C-35.82208252 8.35509277 -35.17150879 8.05393555 -34.5012207 7.74365234 C-23.41389282 2.79197846 -12.07116278 0.56341483 0 0 Z " fill="#C6DEFC" transform="translate(193.34765625,16.84375)"/>
<path d="M0 0 C0.07623218 6.29874903 0.1286762 12.59737851 0.16479492 18.89648438 C0.17985641 21.03813117 0.20030972 23.17974724 0.22631836 25.32128906 C0.26281728 28.40437411 0.27975302 31.48705038 0.29296875 34.5703125 C0.30845261 35.52366486 0.32393646 36.47701721 0.33988953 37.45925903 C0.34144878 43.65573991 -0.47456397 47.95293739 -4.55078125 52.87109375 C-14.54757936 61.75959939 -27.30850527 66.38441694 -40 70 C-40.71881348 70.20866699 -41.43762695 70.41733398 -42.17822266 70.63232422 C-58.0049149 75.11208862 -74.1864513 76.88913794 -90.49414062 78.62329102 C-92.51050263 78.83995164 -94.52586632 79.06795982 -96.53710938 79.32788086 C-105.35199599 80.41256983 -114.26028196 80.10726277 -123.125 80.0625 C-124.86197788 80.05747515 -126.59895716 80.05291398 -128.3359375 80.04882812 C-132.55732688 80.03790014 -136.77864764 80.02068978 -141 80 C-141 79.67 -141 79.34 -141 79 C-140.02353516 78.9906543 -139.04707031 78.98130859 -138.04101562 78.97167969 C-134.33535007 78.93108824 -130.63045622 78.86516011 -126.92529297 78.79248047 C-125.33717948 78.7646637 -123.74893764 78.74325909 -122.16064453 78.72900391 C-110.86527521 78.62170147 -100.83356736 77.18433706 -90 74 C-88.50018055 73.59828365 -87.00022335 73.19708035 -85.5 72.796875 C-71.82718036 68.70723698 -54.91520838 63.07776242 -47.3125 50.125 C-45.03967449 44.42430652 -45.42342182 38.10615465 -45.3125 32.0625 C-45.27833984 30.80630859 -45.24417969 29.55011719 -45.20898438 28.25585938 C-45.12686886 25.17066214 -45.05759701 22.08573616 -45 19 C-43.741875 18.64808594 -42.48375 18.29617188 -41.1875 17.93359375 C-31.03620805 15.03208588 -8.39737052 0 0 0 Z " fill="#EA9B39" transform="translate(397,354)"/>
<path d="M0 0 C8.11661193 -0.25809402 15.96723213 0.72808832 24 1.8125 C24.69307251 1.90536285 25.38614502 1.99822571 26.10021973 2.09390259 C29.53997506 2.55609924 32.97855226 3.02594119 36.41601562 3.50488281 C39.22880521 3.89346165 42.04249776 4.26038305 44.859375 4.6171875 C53.84301112 5.93406589 62.25592501 8.49883023 70.875 11.3125 C72.57027832 11.86296997 72.57027832 11.86296997 74.29980469 12.42456055 C85.42280493 16.20071599 96.5707445 20.99450903 103.9375 30.5 C105.32804487 33.77187029 105.62394874 35.46429049 105 39 C97.61911329 52.95099421 80.1586247 57.99619839 66.09423828 62.37231445 C58.17341019 64.74634675 50.2767073 66.66994633 42.125 68.0625 C41.14192871 68.23168945 40.15885742 68.40087891 39.14599609 68.57519531 C26.17465228 70.72913146 13.15630427 72.15819204 0 72 C3.641551 70.08172714 7.10327877 69.17621459 11.125 68.25 C28.69369874 64.01005207 46.57374705 58.98257426 59 45 C61.33055986 40.3534009 61.70800912 36.1103735 61 31 C55.2061472 18.92947333 41.11294595 13.06193676 29.26171875 8.5234375 C19.69913767 5.17499343 9.91132873 3.03221975 0 1 C0 0.67 0 0.34 0 0 Z " fill="#C6DEFC" transform="translate(292,177)"/>
<path d="M0 0 C11.84712193 6.61897194 19.67482121 16.43662102 24.01171875 29.23046875 C26.87810742 42.54614704 23.7727638 54.89524051 16.515625 66.2265625 C9.81660075 75.07404887 0.39266156 80.6505404 -10.23828125 83.54296875 C-22.88027058 84.8871352 -34.42188206 83.99789963 -44.92578125 76.35546875 C-54.17329218 68.54719476 -60.99389855 59.74263314 -63.23828125 47.54296875 C-64.23041365 34.1633547 -62.72934893 23.17805434 -53.95703125 12.4140625 C-39.7744676 -3.02559202 -19.75193951 -9.02873547 0 0 Z M-45.25 16.6171875 C-52.35622634 25.15359776 -53.8393951 32.86682295 -53.5859375 43.88671875 C-52.79821318 52.17110041 -49.15344952 59.66431387 -43.23828125 65.54296875 C-34.58916772 72.16698772 -26.21719787 75.7923476 -15.23828125 74.54296875 C-4.7340625 72.15749456 3.27737459 67.64871303 9.44140625 58.72265625 C14.56915929 50.25731248 15.91701516 42.42075305 14.76171875 32.54296875 C13.82211119 29.24954837 12.51403095 26.47565791 10.76171875 23.54296875 C10.18421875 22.51171875 9.60671875 21.48046875 9.01171875 20.41796875 C2.60659168 12.23363971 -5.07528542 7.68893998 -15.23828125 5.54296875 C-26.70436801 4.38297554 -37.2397526 8.35807804 -45.25 16.6171875 Z " fill="#2F316F" transform="translate(139.23828125,366.45703125)"/>
<path d="M0 0 C0.1018729 6.26206481 0.17166281 12.52391392 0.21972656 18.78662109 C0.23977468 20.91463202 0.26702054 23.04258832 0.30175781 25.17041016 C0.35057548 28.23874433 0.37303726 31.30634673 0.390625 34.375 C0.41127014 35.31802979 0.43191528 36.26105957 0.45318604 37.23266602 C0.45574735 44.86538267 -1.37940925 50.57416234 -6.8125 56.0625 C-16.17642405 63.3942533 -32.96816008 71 -45 71 C-45 53.51 -45 36.02 -45 18 C-35.1 15.03 -35.1 15.03 -25 12 C-14.63126734 7.9591659 -14.63126734 7.9591659 -5.17578125 2.28515625 C-2 0 -2 0 0 0 Z " fill="#EB9B39" transform="translate(397,232)"/>
<path d="M0 0 C0.07623218 6.29874903 0.1286762 12.59737851 0.16479492 18.89648438 C0.17985641 21.03813117 0.20030972 23.17974724 0.22631836 25.32128906 C0.26281728 28.40437411 0.27975302 31.48705038 0.29296875 34.5703125 C0.30845261 35.52366486 0.32393646 36.47701721 0.33988953 37.45925903 C0.34145427 43.67754639 -0.46180694 48.0153296 -4.62109375 52.90625 C-13.81487378 60.97305054 -30.36275674 70 -43 70 C-43 53.17 -43 36.34 -43 19 C-32 15 -32 15 -27.8125 13.5078125 C-19.00815279 10.33721276 -10.31918613 6.9893896 -2.765625 1.32421875 C-1 0 -1 0 0 0 Z " fill="#C6DEFC" transform="translate(397,293)"/>
<path d="M0 0 C3.48082122 1.3081416 6.95936357 2.62223833 10.4375 3.9375 C11.43072266 4.31068359 12.42394531 4.68386719 13.44726562 5.06835938 C14.86362305 5.60493164 14.86362305 5.60493164 16.30859375 6.15234375 C17.62041626 6.6472229 17.62041626 6.6472229 18.95874023 7.15209961 C21 8 21 8 22 9 C22.08851529 11.59359322 22.11525945 14.16039691 22.09765625 16.75390625 C22.0962413 17.52935287 22.09482635 18.3047995 22.09336853 19.10374451 C22.08775345 21.59003494 22.07519846 24.0762366 22.0625 26.5625 C22.05748694 28.24413933 22.0529237 29.92578006 22.04882812 31.60742188 C22.03777913 35.73831566 22.02050445 39.86914276 22 44 C11.27657676 48.78214663 11.27657676 48.78214663 7.625 50.3125 C6.40683594 50.83263672 6.40683594 50.83263672 5.1640625 51.36328125 C3 52 3 52 0 51 C0.50660156 49.93072266 0.50660156 49.93072266 1.0234375 48.83984375 C6.7065802 36.63586969 9.42041879 25.45289099 4.93359375 12.29296875 C3.49083584 8.74945875 1.75894993 5.39659297 0 2 C0 1.34 0 0.68 0 0 Z " fill="#888399" transform="translate(156,380)"/>
<path d="M0 0 C-0.33 0.66 -0.66 1.32 -1 2 C-5.96098482 3.24024621 -10.92441192 3.10151176 -16 3 C-13.18207306 1.47870459 -10.56006978 0.51521029 -7.4375 -0.1875 C-6.67308594 -0.36667969 -5.90867187 -0.54585937 -5.12109375 -0.73046875 C-3 -1 -3 -1 0 0 Z " fill="#BDD2F1" transform="translate(308,246)"/>
</svg>
